<?xml version="1.0" encoding="UTF-8" standalone="no"?>
<!DOCTYPE svg PUBLIC "-//W3C//DTD SVG 1.1//EN" "http://www.w3.org/Graphics/SVG/1.1/DTD/svg11.dtd">
<svg xmlns="http://www.w3.org/2000/svg" version="1.1" viewBox="0.00 0.00 420.00 402.00">
<g stroke-width="2.00" fill="none" stroke-linecap="butt">
<path stroke="#727478" vector-effect="non-scaling-stroke" d="
  M 74.80 318.88
  Q 86.05 332.02 99.58 343.09"
/>
<path stroke="#636870" vector-effect="non-scaling-stroke" d="
  M 99.58 343.09
  L 105.93 347.86"
/>
<path stroke="#335a7a" vector-effect="non-scaling-stroke" d="
  M 105.93 347.86
  Q 117.73 356.71 130.98 363.02"
/>
<path stroke="#636870" vector-effect="non-scaling-stroke" d="
  M 130.98 363.02
  L 142.97 368.44"
/>
<path stroke="#6a6e74" vector-effect="non-scaling-stroke" d="
  M 142.97 368.44
  L 154.49 372.66"
/>
<path stroke="#636870" vector-effect="non-scaling-stroke" d="
  M 154.49 372.66
  C 221.76 394.61 290.90 373.81 339.06 323.24"
/>
<path stroke="#6a6e74" vector-effect="non-scaling-stroke" d="
  M 339.06 323.24
  L 351.97 306.42"
/>
<path stroke="#636870" vector-effect="non-scaling-stroke" d="
  M 351.97 306.42
  Q 362.28 291.75 369.39 276.00"
/>
<path stroke="#6a6e74" vector-effect="non-scaling-stroke" d="
  M 369.39 276.00
  Q 381.93 247.81 384.40 218.31"
/>
<path stroke="#636870" vector-effect="non-scaling-stroke" d="
  M 384.40 218.31
  C 387.74 186.26 381.86 153.77 368.39 124.72"
/>
<path stroke="#727478" vector-effect="non-scaling-stroke" d="
  M 368.39 124.72
  L 364.82 117.52"
/>
<path stroke="#797b7e" vector-effect="non-scaling-stroke" d="
  M 364.82 117.52
  Q 359.31 106.63 352.22 96.70"
/>
<path stroke="#335a7a" vector-effect="non-scaling-stroke" d="
  M 352.22 96.70
  C 283.71 -0.90 139.70 -3.49 68.39 92.70
  C 17.85 160.88 19.99 253.46 74.80 318.88"
/>
<path stroke="#abd5f8" vector-effect="non-scaling-stroke" d="
  M 352.22 96.70
  C 351.23 97.54 350.56 97.94 349.22 97.47
  Q 341.21 94.62 335.73 94.65
  C 322.75 94.70 310.53 105.59 302.27 116.18
  Q 301.94 116.60 301.43 116.72
  Q 298.99 117.31 296.49 117.70
  C 293.08 118.24 283.02 129.72 281.42 132.96
  Q 279.08 137.69 278.66 143.08
  Q 278.61 143.68 278.08 143.96
  L 258.00 154.30
  Q 257.46 154.58 256.86 154.45
  C 253.10 153.64 248.94 155.25 245.40 156.50
  C 233.79 160.58 226.03 175.28 225.78 186.93
  C 225.72 189.78 227.85 193.08 224.95 195.65
  C 223.41 197.02 220.55 196.52 218.58 196.36
  Q 218.10 196.32 217.71 196.59
  C 212.98 199.83 211.34 203.97 209.45 209.95
  Q 209.03 211.28 206.21 212.81"
/>
<path stroke="#9cc8ee" vector-effect="non-scaling-stroke" d="
  M 206.21 212.81
  C 198.03 213.36 190.34 208.93 179.96 204.03
  C 178.49 203.33 177.22 201.98 175.78 201.25
  Q 165.06 195.78 155.33 188.69"
/>
<path stroke="#335a7a" vector-effect="non-scaling-stroke" d="
  M 155.33 188.69
  C 160.75 189.17 167.25 184.38 172.22 182.18
  Q 172.59 182.01 172.44 181.63
  C 170.47 176.40 161.20 177.69 156.57 177.28
  C 153.06 176.96 144.30 171.52 142.20 168.69
  A 0.61 0.60 50.8 0 1 142.28 167.87
  C 147.93 162.83 156.72 159.28 163.64 156.29
  Q 164.31 156.01 163.95 155.38
  Q 161.65 151.41 157.26 152.01
  Q 148.56 153.19 127.50 152.91
  C 122.66 152.84 113.99 146.34 109.39 143.88
  C 104.82 141.44 87.37 134.50 90.07 146.28
  C 92.75 158.01 116.49 175.12 126.06 181.75
  C 149.90 198.28 173.13 212.77 202.09 222.67"
/>
<path stroke="#b2d9fa" vector-effect="non-scaling-stroke" d="
  M 202.09 222.67
  Q 201.29 223.60 200.51 223.88"
/>
<path stroke="#9cc8ee" vector-effect="non-scaling-stroke" d="
  M 200.51 223.88
  Q 192.42 226.77 186.96 233.30
  C 185.17 235.43 184.13 238.17 182.67 240.72
  Q 182.40 241.18 181.87 241.24
  L 181.01 241.34"
/>
<path stroke="#b2d9fa" vector-effect="non-scaling-stroke" d="
  M 181.01 241.34
  C 170.71 240.20 162.73 236.59 153.07 243.13
  Q 152.64 243.42 152.45 242.94
  C 150.39 237.89 143.99 238.45 139.57 239.27
  Q 137.42 239.67 134.15 241.48
  C 130.41 243.55 126.26 244.33 122.83 246.57
  Q 118.81 249.17 114.92 252.01
  A 1.35 1.33 29.4 0 1 114.00 252.26
  C 102.08 250.98 90.28 256.59 81.48 264.74"
/>
<path stroke="#abd5f8" vector-effect="non-scaling-stroke" d="
  M 81.48 264.74
  C 72.51 272.14 68.42 284.04 73.96 294.80"
/>
<path stroke="#b2d9fa" vector-effect="non-scaling-stroke" d="
  M 73.96 294.80
  Q 73.95 295.62 74.33 295.50"
/>
<path stroke="#abd5f8" vector-effect="non-scaling-stroke" d="
  M 74.33 295.50
  C 73.84 297.63 72.95 299.37 73.00 301.56
  Q 73.12 306.06 72.74 310.56
  Q 72.69 311.07 72.97 311.50
  L 76.08 316.41"
/>
<path stroke="#a4cdf2" vector-effect="non-scaling-stroke" d="
  M 76.08 316.41
  L 74.80 318.88"
/>
<path stroke="#6a6e74" vector-effect="non-scaling-stroke" d="
  M 155.33 188.69
  Q 145.81 188.43 136.77 185.98
  Q 136.27 185.84 136.69 186.15
  C 149.74 195.92 160.97 202.48 175.94 209.72
  C 186.07 214.63 197.31 218.82 208.15 223.05
  Q 208.55 223.21 208.66 223.61
  Q 208.70 223.77 208.74 223.96"
/>
<path stroke="#7f7f80" vector-effect="non-scaling-stroke" d="
  M 208.74 223.96
  L 202.09 222.67"
/>
<path stroke="#f1f3f8" vector-effect="non-scaling-stroke" d="
  M 225.42 238.89
  L 223.06 245.87
  Q 222.89 246.35 222.42 246.55
  C 217.21 248.71 218.53 239.07 212.98 242.00
  Q 202.75 247.37 196.15 256.12
  A 1.54 1.51 -28.7 0 0 195.84 257.15
  Q 196.03 260.36 194.03 262.70
  Q 193.66 263.14 193.14 262.89
  Q 190.19 261.46 188.66 258.69"
/>
<path stroke="#f8fafd" vector-effect="non-scaling-stroke" d="
  M 188.66 258.69
  C 186.55 257.41 186.38 255.34 184.92 253.93
  Q 182.29 251.40 179.10 249.37
  A 1.30 1.26 -33.2 0 0 178.18 249.19
  Q 172.72 250.12 167.94 252.75
  C 164.92 254.41 162.62 257.38 160.22 259.97
  A 1.99 1.99 0.0 0 1 157.30 259.97
  Q 155.63 258.17 153.33 256.20
  C 151.91 254.98 152.41 253.02 151.31 251.63
  Q 148.50 248.10 143.70 250.77
  Q 136.07 255.02 130.34 260.16
  C 122.59 267.13 116.92 271.69 109.77 277.13
  Q 109.37 277.43 108.89 277.26
  L 107.19 276.66
  A 0.74 0.73 -65.9 0 0 106.31 277.00
  Q 105.60 278.28 104.87 279.50
  C 102.63 283.26 102.68 290.76 103.11 294.64
  A 1.82 1.82 0.0 0 1 100.80 296.59
  C 96.29 295.31 95.26 297.96 91.99 299.18
  Q 89.99 299.93 87.92 300.47
  Q 87.43 300.60 87.21 301.05
  C 86.26 302.97 85.58 310.62 81.53 307.36
  A 1.80 1.78 19.4 0 1 80.85 305.96
  Q 80.85 303.03 78.87 300.86
  Q 78.60 300.57 78.21 300.46
  L 75.39 299.72
  A 0.82 0.79 -87.5 0 1 74.80 299.05
  L 74.33 295.50"
/>
<path stroke="#f8fafd" vector-effect="non-scaling-stroke" d="
  M 73.96 294.80
  C 75.75 288.94 72.24 282.29 75.18 276.84
  C 77.48 272.56 80.34 269.94 82.40 266.84
  A 0.47 0.47 0.0 0 0 82.20 266.15
  Q 81.28 265.75 81.48 264.74"
/>
<path stroke="#e9edf3" vector-effect="non-scaling-stroke" d="
  M 181.01 241.34
  L 181.71 242.58
  A 0.68 0.67 62.6 0 0 182.58 242.86
  Q 183.69 242.33 184.78 241.56
  Q 185.14 241.30 185.27 240.88
  Q 187.21 234.61 192.34 230.50
  C 195.43 228.03 198.41 228.46 200.51 223.88"
/>
<path stroke="#eaeff6" vector-effect="non-scaling-stroke" d="
  M 364.82 117.52
  C 364.59 119.97 360.83 118.34 359.66 117.47
  Q 359.24 117.15 358.72 117.22
  Q 355.58 117.63 352.88 115.99
  Q 352.42 115.71 351.88 115.73
  C 341.87 116.12 327.40 127.80 322.66 136.68
  C 321.31 139.19 324.67 147.79 325.70 150.52
  A 0.72 0.71 71.3 0 1 325.24 151.46
  L 320.58 152.91
  Q 320.19 153.03 319.90 153.32
  Q 319.18 154.04 317.95 153.53
  C 314.25 152.00 311.15 151.14 309.93 147.35
  A 1.04 1.04 0.0 0 0 307.98 147.28
  L 306.20 151.77
  Q 306.00 152.26 306.00 152.78
  Q 305.99 153.65 305.50 154.38
  A 0.89 0.88 23.4 0 1 304.56 154.75
  L 301.70 154.10
  A 1.08 1.07 -11.1 0 1 301.05 153.67
  C 299.17 151.04 297.32 148.70 293.93 148.06
  C 285.51 146.48 274.73 149.14 270.30 157.17
  Q 270.07 157.58 270.10 158.05
  Q 270.34 161.26 268.38 163.14
  Q 260.29 170.88 253.99 181.76
  Q 253.10 183.30 254.55 184.34
  L 258.34 187.06
  A 0.57 0.56 55.4 0 1 258.16 188.07
  L 255.50 188.77
  Q 254.59 189.00 255.48 189.31
  Q 256.82 189.78 257.21 191.13
  A 0.72 0.71 68.1 0 1 256.86 191.96
  Q 253.21 193.85 250.87 197.43
  A 2.30 2.29 -46.8 0 0 250.95 200.07
  Q 252.66 202.35 253.29 205.50"
/>
<path stroke="#dbe3ee" vector-effect="non-scaling-stroke" d="
  M 253.29 205.50
  Q 248.40 211.78 244.35 218.60
  A 1.95 1.88 -29.3 0 0 244.08 219.50
  C 243.98 221.71 240.78 222.99 239.15 225.37
  A 0.97 0.96 21.3 0 1 238.21 225.78
  Q 235.65 225.41 233.76 227.05
  A 1.22 1.20 -58.7 0 1 232.69 227.32
  Q 229.33 226.52 226.95 227.66"
/>
<path stroke="#f8fafd" vector-effect="non-scaling-stroke" d="
  M 226.95 227.66
  Q 217.88 226.48 209.26 223.90"
/>
<path stroke="#e2e9f1" vector-effect="non-scaling-stroke" d="
  M 209.26 223.90
  Q 210.41 223.39 211.19 223.85
  A 0.90 0.89 81.7 0 0 212.25 222.42
  Q 209.37 219.68 211.44 215.99
  A 0.62 0.62 0.0 0 0 211.16 215.12
  L 206.21 212.81"
/>
<path stroke="#e9edf3" vector-effect="non-scaling-stroke" d="
  M 209.26 223.90
  Q 208.64 223.41 208.74 223.96"
/>
<path stroke="#eaeff6" vector-effect="non-scaling-stroke" d="
  M 163.60 271.40
  Q 158.51 270.38 155.85 272.57
  Q 152.67 275.18 149.27 277.52
  Q 148.86 277.80 148.63 278.24
  L 145.68 283.88
  A 0.84 0.83 -55.3 0 1 144.38 284.12
  L 138.44 278.82
  Q 137.96 278.38 137.73 278.99
  L 137.40 279.89
  Q 137.24 280.33 136.89 280.66
  C 131.59 285.50 126.15 290.11 122.44 296.35
  A 1.48 1.47 -33.7 0 0 122.25 297.27
  C 122.48 299.28 122.03 300.36 120.44 301.73
  Q 115.15 306.29 109.74 310.76
  Q 109.36 311.07 108.87 310.98
  Q 107.59 310.75 106.71 309.74
  A 2.01 2.00 -58.8 0 0 103.26 310.59
  C 102.32 314.41 107.05 313.50 106.88 317.48
  C 106.73 321.01 107.02 323.96 110.08 325.39
  A 0.41 0.41 0.0 0 1 110.04 326.15
  Q 103.31 328.44 96.60 327.50
  C 94.01 327.14 90.29 325.59 86.53 325.76
  Q 86.01 325.79 85.56 325.52
  Q 82.80 323.85 80.98 321.13
  Q 80.69 320.69 80.21 320.45
  Q 77.62 319.18 76.08 316.41"
/>
<path stroke="#ccd6e4" vector-effect="non-scaling-stroke" d="
  M 384.40 218.31
  Q 383.86 219.00 383.65 217.93
  Q 383.55 217.39 383.12 217.03
  L 371.59 207.50
  Q 371.09 207.08 370.65 207.58
  C 367.95 210.64 364.96 212.52 368.06 216.95
  A 1.41 1.39 -56.9 0 1 368.28 218.03
  L 368.13 218.79
  A 0.66 0.66 0.0 0 1 367.07 219.18
  Q 356.52 210.81 343.65 208.71
  C 337.47 207.70 333.88 206.17 329.00 203.20
  A 0.78 0.77 -35.7 0 1 329.24 201.78
  L 333.81 200.72
  A 1.29 1.29 0.0 0 0 334.34 198.47
  L 332.57 197.01
  A 1.13 1.13 0.0 0 1 332.52 195.31
  C 336.16 191.91 342.30 189.27 346.11 194.37
  Q 346.40 194.77 346.88 194.90
  C 349.18 195.55 351.42 198.50 353.34 197.73
  C 362.50 194.04 369.93 198.14 378.34 201.17
  A 0.83 0.83 0.0 0 0 379.26 199.85
  Q 370.30 189.10 357.52 184.36
  C 354.01 183.05 349.95 183.15 346.11 182.73
  C 342.91 182.38 341.90 181.39 339.41 179.57
  C 333.60 175.30 322.93 180.15 317.82 184.07
  Q 316.52 185.06 315.17 185.27
  Q 314.64 185.35 314.28 184.96
  C 306.50 176.59 295.88 183.81 291.20 191.44"
/>
<path stroke="#dbe3ee" vector-effect="non-scaling-stroke" d="
  M 291.20 191.44
  Q 289.33 193.83 288.22 197.18"
/>
<path stroke="#ccd6e4" vector-effect="non-scaling-stroke" d="
  M 288.22 197.18
  L 284.65 210.29
  Q 284.47 210.97 283.79 210.78
  L 280.69 209.89
  A 1.33 1.30 40.4 0 0 279.80 209.95
  L 277.76 210.85"
/>
<path stroke="#dbe3ee" vector-effect="non-scaling-stroke" d="
  M 277.76 210.85
  L 274.39 210.27"
/>
<path stroke="#ccd6e4" vector-effect="non-scaling-stroke" d="
  M 274.39 210.27
  Q 262.46 209.82 259.79 221.50
  Q 259.68 222.02 260.04 222.40
  L 261.18 223.59
  A 0.87 0.86 30.9 0 1 261.39 224.40
  Q 260.71 226.94 259.45 229.26
  Q 259.20 229.72 259.32 230.23
  Q 259.59 231.38 259.18 232.55
  Q 258.99 233.08 258.47 233.25
  C 250.55 235.76 255.09 242.54 258.25 246.61
  C 260.55 249.58 261.20 251.98 265.56 252.56
  A 0.66 0.64 -11.2 0 1 266.04 252.87
  L 266.20 253.14
  A 0.42 0.41 73.7 0 1 265.86 253.77
  C 256.12 254.06 248.39 254.70 242.72 263.20
  Q 238.75 269.16 235.00 274.65"
/>
<path stroke="#e2e7f0" vector-effect="non-scaling-stroke" d="
  M 235.00 274.65
  L 232.02 277.26
  Q 231.58 277.65 230.99 277.60
  L 224.20 277.09
  Q 223.70 277.05 223.28 277.31
  Q 220.09 279.29 219.20 283.09
  Q 219.07 283.62 218.53 283.49
  L 216.66 283.04
  A 0.89 0.87 27.6 0 0 215.79 283.30
  Q 213.29 286.05 212.98 289.75
  Q 212.95 290.14 212.56 290.17
  L 209.95 290.41
  A 0.80 0.79 86.9 0 0 209.24 291.22
  Q 209.26 292.55 208.39 293.23
  A 2.38 2.24 15.8 0 1 207.60 293.64
  L 204.57 294.56
  Q 203.87 294.77 204.08 295.46
  L 205.86 301.45
  A 1.20 1.20 0.0 0 1 204.02 302.77
  L 201.73 301.15
  A 0.52 0.52 0.0 0 0 200.93 301.44
  Q 198.94 308.65 193.08 313.01
  Q 192.27 313.60 191.80 315.48
  Q 191.67 316.00 191.93 316.47
  Q 193.65 319.67 196.38 322.11
  A 1.86 1.84 -76.5 0 1 196.95 323.05
  Q 198.22 328.15 202.51 331.00
  Q 202.93 331.28 202.98 331.78
  Q 203.20 333.85 202.39 335.63
  C 200.72 339.28 194.71 339.66 196.65 345.13"
/>
<path stroke="#ccd6e4" vector-effect="non-scaling-stroke" d="
  M 196.65 345.13
  C 196.58 348.02 193.11 347.02 191.16 346.76
  C 188.15 346.36 184.82 346.77 181.70 345.95
  Q 178.45 345.10 175.12 344.82
  A 1.35 1.35 0.0 0 1 174.38 342.44
  L 176.24 340.89"
/>
<path stroke="#dbe3ee" vector-effect="non-scaling-stroke" d="
  M 176.24 340.89
  Q 178.62 336.04 175.37 334.23
  A 0.72 0.72 0.0 0 1 175.24 333.07
  Q 178.45 330.20 182.03 327.83
  C 183.21 327.05 185.20 326.75 186.15 326.01
  A 1.75 1.75 0.0 0 0 186.31 323.39
  L 180.00 317.14
  Q 179.58 316.73 179.07 317.02
  C 173.83 320.00 166.56 325.68 164.42 331.56"
/>
<path stroke="#ccd6e4" vector-effect="non-scaling-stroke" d="
  M 164.42 331.56
  Q 155.38 329.76 152.42 337.80
  Q 152.26 338.21 151.87 338.42
  Q 150.76 339.00 151.00 340.33
  A 0.26 0.25 73.1 0 1 150.86 340.60
  Q 143.43 344.29 140.41 350.18
  C 138.84 353.25 137.52 356.29 140.35 358.88
  Q 140.75 359.24 141.27 359.11
  Q 146.11 357.88 146.96 352.96
  A 0.47 0.47 0.0 0 1 147.84 352.82
  C 148.02 353.16 143.40 366.54 142.97 368.44"
/>
<path stroke="#95c2ea" vector-effect="non-scaling-stroke" d="
  M 130.98 363.02
  L 131.42 360.60
  Q 131.50 360.19 131.15 359.96
  C 128.35 358.05 127.69 353.23 127.70 350.24
  Q 127.70 349.71 127.98 349.24
  Q 128.92 347.65 129.27 345.81
  A 0.53 0.53 0.0 0 0 128.57 345.21
  Q 121.32 347.67 113.64 347.64
  Q 113.19 347.64 112.80 347.42
  Q 109.31 345.48 105.93 347.86"
/>
<path stroke="#d4dce8" vector-effect="non-scaling-stroke" d="
  M 99.58 343.09
  Q 101.01 341.42 103.03 341.00
  Q 103.54 340.89 103.94 341.22
  C 109.51 345.73 117.31 348.77 124.01 345.19
  C 125.84 344.21 130.63 344.57 128.09 340.70
  A 1.69 1.69 0.0 0 1 128.29 338.60
  L 129.73 337.11
  A 0.93 0.93 0.0 0 0 129.93 336.12
  C 129.42 334.85 128.26 333.93 127.77 333.07
  Q 125.14 328.47 127.50 323.51
  Q 127.74 323.01 127.30 322.68
  Q 126.83 322.32 126.14 322.55
  A 0.89 0.88 -28.0 0 1 125.17 322.26
  L 124.17 321.02
  Q 123.93 320.72 123.57 320.61
  Q 121.20 319.86 121.52 317.37
  Q 121.62 316.60 122.28 317.01
  L 125.82 319.16
  A 1.45 1.40 3.0 0 1 126.34 319.72
  Q 127.02 321.06 128.55 320.72
  Q 129.01 320.62 129.26 320.21
  Q 132.45 314.93 137.08 310.86
  Q 137.86 310.17 137.73 309.14
  C 136.63 300.82 143.00 293.26 151.59 294.61
  A 0.48 0.48 0.0 0 0 151.82 293.69
  Q 148.04 292.37 149.02 288.12
  C 151.23 278.50 161.16 279.26 163.60 271.40"
/>
<path stroke="#dbe3ee" vector-effect="non-scaling-stroke" d="
  M 163.60 271.40
  Q 172.18 266.36 183.24 267.67
  A 0.47 0.46 -9.2 0 0 183.72 267.01
  Q 182.45 264.25 179.94 262.55
  A 1.79 1.77 -30.9 0 1 180.77 259.32
  Q 181.10 259.28 181.64 259.59
  A 1.16 1.15 -39.8 0 0 182.58 259.67
  Q 185.07 258.83 187.88 259.21"
/>
<path stroke="#d4dce8" vector-effect="non-scaling-stroke" d="
  M 187.88 259.21
  C 189.87 262.36 190.70 265.53 195.01 265.80
  Q 195.53 265.84 195.80 266.28
  Q 198.63 270.98 204.11 271.80
  Q 204.65 271.88 204.79 271.35
  Q 207.88 259.78 218.97 254.90
  C 222.60 253.30 225.70 255.20 229.10 254.95
  A 0.82 0.82 0.0 0 0 229.82 254.38
  Q 230.79 251.42 232.94 249.18
  A 1.28 1.25 -24.8 0 0 233.30 248.23
  Q 233.17 245.44 231.10 243.55
  Q 230.74 243.22 230.26 243.25
  Q 226.33 243.52 225.42 238.89"
/>
<path stroke="#e2e7f0" vector-effect="non-scaling-stroke" d="
  M 225.42 238.89
  C 226.57 235.13 228.63 231.73 226.95 227.66"
/>
<path stroke="#eaeff6" vector-effect="non-scaling-stroke" d="
  M 187.88 259.21
  Q 188.14 258.88 188.66 258.69"
/>
<path stroke="#d4dce8" vector-effect="non-scaling-stroke" d="
  M 368.39 124.72
  Q 367.72 126.19 366.15 126.58
  Q 365.65 126.70 365.27 126.35
  C 362.55 123.82 359.42 123.43 356.13 125.53
  C 350.28 129.26 341.61 137.29 342.51 145.12
  A 2.25 2.25 0.0 0 1 341.30 147.38
  Q 336.32 149.93 334.01 155.00
  Q 333.73 155.61 333.06 155.53
  Q 331.37 155.32 330.65 153.66
  A 0.49 0.49 0.0 0 0 329.81 153.56
  C 327.24 157.01 326.10 154.94 323.33 155.42
  C 322.17 155.63 319.35 156.74 318.39 155.58
  Q 318.10 155.22 317.64 155.24
  C 309.77 155.58 305.99 159.40 301.79 165.12
  A 1.79 1.73 -82.4 0 1 301.02 165.73
  C 291.60 169.49 284.21 174.83 281.24 184.83
  Q 281.09 185.33 280.58 185.43
  C 274.95 186.62 272.56 191.76 270.92 196.98
  Q 269.80 200.51 272.17 203.03
  C 272.71 203.61 272.69 204.45 271.93 204.87
  A 0.75 0.74 56.3 0 1 271.00 204.68
  Q 269.11 202.38 266.40 201.08
  Q 265.86 200.82 265.81 200.22
  Q 265.74 199.47 265.22 198.89
  Q 264.94 198.59 264.55 198.49
  C 258.94 197.08 256.19 202.86 253.29 205.50"
/>
<path stroke="#f1f3f8" vector-effect="non-scaling-stroke" d="
  M 298.82 263.64
  C 298.39 266.86 288.99 275.09 286.35 277.59
  Q 286.01 277.93 285.58 277.70
  Q 271.93 270.38 264.07 282.36
  Q 262.95 284.08 261.37 285.07
  Q 254.93 289.14 249.46 294.46
  Q 248.78 295.12 247.95 295.56
  Q 247.51 295.79 247.02 295.65
  C 232.78 291.66 230.55 299.91 229.37 311.45
  C 228.85 316.62 229.97 320.76 233.55 324.32
  A 1.02 1.01 46.9 0 1 233.51 325.80
  Q 227.00 331.50 224.63 339.59
  C 223.65 342.92 224.02 346.86 223.99 350.48
  Q 223.99 350.96 223.53 351.11
  L 222.68 351.40"
/>
<path stroke="#ccd6e4" vector-effect="non-scaling-stroke" d="
  M 369.39 276.00
  Q 357.35 269.23 350.85 276.72
  C 348.89 278.98 340.46 291.48 341.99 295.00
  Q 345.09 302.12 351.97 306.42"
/>
<path stroke="#ccd6e4" vector-effect="non-scaling-stroke" d="
  M 339.06 323.24
  C 333.18 319.04 327.52 316.17 321.32 318.11
  C 314.32 320.30 308.34 322.72 306.25 330.45
  Q 304.45 337.12 302.38 343.79
  A 1.17 1.17 0.0 0 1 300.60 344.40
  C 296.08 341.27 292.91 334.25 289.04 330.01
  Q 288.71 329.65 288.62 329.17
  Q 284.53 306.58 305.29 298.99
  A 1.35 1.35 0.0 0 0 305.35 296.48
  C 300.26 294.34 300.74 287.94 293.36 291.13
  Q 292.58 291.46 291.76 291.70
  Q 291.28 291.84 291.02 291.41
  Q 290.18 290.01 288.51 289.80
  A 1.19 1.18 -64.3 0 0 287.52 290.15
  Q 286.63 291.07 285.50 292.77
  Q 283.04 296.47 278.71 299.30
  Q 278.31 299.56 278.07 299.96
  L 272.71 309.08
  Q 272.46 309.50 272.60 309.96
  Q 273.08 311.49 274.29 312.45
  Q 274.78 312.84 274.34 313.29
  Q 273.30 314.35 271.92 314.97
  Q 271.44 315.18 271.12 315.59
  L 269.56 317.58
  A 1.46 1.45 62.8 0 0 269.25 318.56
  Q 269.35 320.17 268.47 321.53
  Q 268.22 321.91 268.27 322.37
  C 268.71 326.90 266.17 329.34 262.42 331.48
  C 260.78 332.42 257.38 332.42 257.30 335.35
  A 3.06 3.06 0.0 0 0 258.76 338.03
  Q 261.53 339.72 262.94 342.60
  A 1.91 1.91 0.0 0 0 265.79 343.29
  L 271.08 339.36
  A 1.30 1.29 -36.4 0 1 272.90 339.63
  Q 273.89 340.98 272.96 342.07
  A 0.82 0.82 0.0 0 0 273.82 343.39
  L 279.22 341.73
  A 1.59 1.59 0.0 0 1 280.86 344.32
  L 275.35 350.41
  Q 275.14 350.64 275.08 350.95
  Q 274.65 352.96 272.85 354.07
  A 0.79 0.78 45.3 0 1 272.01 354.06
  C 268.99 352.07 263.66 354.72 260.21 355.37
  A 1.26 1.26 0.0 0 1 258.74 353.90
  L 259.04 352.36
  Q 259.10 352.04 258.93 351.76
  Q 256.42 347.45 252.17 345.00
  A 1.18 1.18 0.0 0 0 251.21 344.91
  Q 247.07 346.32 244.32 343.35
  A 1.27 1.26 66.0 0 0 243.29 342.95
  Q 240.97 343.16 241.16 345.47
  A 0.95 0.95 0.0 0 1 240.77 346.31
  C 237.40 348.74 237.15 351.71 235.02 354.88
  C 231.14 360.63 233.89 364.94 232.06 370.81
  A 0.11 0.11 0.0 0 0 232.14 370.95
  Q 232.25 370.99 232.37 371.08
  A 0.10 0.09 -46.6 0 1 232.37 371.23
  Q 224.55 377.99 214.52 374.48
  Q 214.01 374.30 213.86 373.78
  Q 212.86 370.29 209.64 368.82
  Q 209.17 368.61 208.75 368.91
  L 203.42 372.80
  Q 203.05 373.07 202.71 372.78
  Q 199.00 369.67 197.29 365.11
  A 1.28 1.24 -89.2 0 0 196.62 364.40
  L 188.52 360.79
  Q 188.12 360.60 187.75 360.86
  Q 185.86 362.15 184.92 364.32
  A 1.12 1.12 0.0 0 1 182.79 364.03
  L 181.94 358.05
  A 0.76 0.75 -8.2 0 0 181.07 357.41
  C 179.14 357.71 177.95 358.58 177.02 360.51
  C 175.36 363.92 169.55 368.03 165.54 365.42
  A 0.97 0.96 49.8 0 0 164.62 365.34
  Q 158.89 367.92 154.49 372.66"
/>
<path stroke="#e2e9f1" vector-effect="non-scaling-stroke" d="
  M 164.42 331.56
  C 163.98 335.17 161.06 337.17 161.26 341.37
  A 1.06 1.04 -74.1 0 0 161.69 342.16
  Q 162.75 342.93 163.01 344.21
  Q 163.13 344.79 163.67 345.03
  Q 165.21 345.72 165.86 347.35
  A 0.50 0.50 0.0 0 0 166.72 347.47
  Q 168.02 345.77 168.23 343.61
  Q 168.28 343.07 168.63 342.66
  Q 170.18 340.79 170.48 338.29
  Q 170.56 337.70 171.15 337.69
  Q 173.87 337.63 174.74 340.27
  A 0.71 0.70 -11.1 0 0 175.46 340.75
  Q 175.92 340.71 176.24 340.89"
/>
<path stroke="#e9edf3" vector-effect="non-scaling-stroke" d="
  M 196.65 345.13
  Q 197.07 348.05 202.80 348.53
  A 1.06 1.06 0.0 0 1 203.43 350.36
  Q 200.02 353.53 200.94 358.42
  C 201.69 362.45 202.16 366.49 202.82 370.63
  A 0.84 0.84 0.0 0 0 204.28 371.06
  Q 206.05 369.08 208.00 366.91
  C 213.11 361.24 212.92 352.41 222.68 351.40"
/>
<path stroke="#dbe2ec" vector-effect="non-scaling-stroke" d="
  M 222.68 351.40
  C 226.97 352.92 230.28 346.98 233.60 345.34
  Q 235.75 344.28 238.09 343.64
  C 238.90 343.42 239.94 343.68 240.74 343.38
  A 0.71 0.71 0.0 0 0 241.19 342.64
  Q 240.72 338.27 243.27 334.79
  A 2.03 2.03 0.0 0 1 246.75 335.15
  Q 247.78 337.38 249.76 338.74
  A 0.79 0.79 0.0 0 0 250.87 337.66
  C 249.39 335.36 250.06 332.91 249.61 330.88
  Q 249.13 328.70 248.30 326.59
  Q 248.11 326.12 248.20 325.61
  C 248.93 321.77 250.71 314.62 254.05 312.25
  C 256.49 310.51 261.79 310.84 264.86 310.78
  C 268.64 310.70 266.92 308.39 266.92 306.37
  C 266.92 296.66 275.20 289.65 282.96 285.58
  C 285.65 284.17 288.35 284.99 291.00 283.26
  Q 294.33 281.08 297.66 278.84
  A 1.75 1.72 27.1 0 1 298.59 278.55
  C 302.09 278.52 307.00 280.07 308.71 275.80
  Q 308.91 275.31 308.59 274.88
  L 301.12 264.84"
/>
<path stroke="#ccd6e4" vector-effect="non-scaling-stroke" d="
  M 301.12 264.84
  Q 304.74 264.78 308.69 268.57
  Q 309.21 269.06 309.81 268.67
  C 312.58 266.85 307.66 263.14 306.34 261.90
  A 1.73 1.72 -43.1 0 1 306.43 259.31
  Q 307.60 258.34 309.52 259.44
  C 313.30 261.59 317.00 260.03 320.75 260.53
  Q 321.27 260.60 321.63 260.22
  Q 322.92 258.86 324.82 259.00
  A 0.78 0.77 -5.9 0 1 325.51 259.55
  C 326.57 262.96 331.05 257.36 333.17 256.55
  A 1.26 1.24 49.8 0 1 334.25 256.65
  L 338.02 258.96
  A 0.92 0.92 0.0 0 0 339.41 258.29
  C 339.88 254.43 338.97 249.84 340.23 246.45
  C 341.32 243.51 343.47 240.13 347.02 240.24
  Q 347.44 240.25 347.80 240.47
  L 350.04 241.79
  A 1.54 1.54 0.0 0 0 352.35 240.72
  L 352.91 237.33
  A 0.93 0.93 0.0 0 1 354.28 236.67
  L 361.03 240.44
  A 0.71 0.71 0.0 0 0 361.95 239.40
  Q 356.28 231.73 360.57 222.96
  A 1.48 1.48 0.0 0 0 359.60 220.88
  L 354.36 219.57
  Q 353.77 219.42 353.26 219.76
  Q 348.43 222.92 343.30 221.38
  C 340.29 220.47 337.46 217.59 333.71 216.70
  A 2.07 2.07 0.0 0 0 331.17 218.84
  Q 331.43 223.23 327.64 225.29
  Q 326.66 225.82 327.73 226.13
  L 329.68 226.70
  Q 330.20 226.85 330.06 227.37
  L 325.99 242.59
  A 1.62 1.62 0.0 0 0 327.39 244.61
  Q 328.75 244.76 328.76 246.16
  Q 328.77 246.76 328.20 246.96
  Q 326.43 247.58 324.52 247.41
  Q 310.16 246.12 301.54 234.77
  A 0.91 0.89 -22.0 0 0 300.72 234.43
  Q 294.57 235.26 289.84 239.40
  Q 289.49 239.71 289.44 240.17
  L 289.13 243.36
  A 0.95 0.95 0.0 0 1 288.00 244.20
  Q 282.78 243.11 279.28 239.19
  Q 278.73 238.57 278.54 239.37
  L 278.20 240.78
  A 1.74 1.74 0.0 0 1 275.90 242.01
  L 274.49 241.48
  A 0.76 0.76 0.0 0 0 273.70 241.66
  Q 270.93 244.48 270.84 248.51
  C 270.72 254.22 275.10 253.14 278.43 255.68
  A 1.39 1.37 62.4 0 0 279.33 255.97
  Q 284.36 255.77 288.98 257.05"
/>
<path stroke="#e9edf3" vector-effect="non-scaling-stroke" d="
  M 288.98 257.05
  Q 283.09 262.03 276.74 255.98
  Q 276.37 255.63 275.86 255.65
  C 272.15 255.81 269.13 256.27 265.24 255.90
  Q 257.32 255.15 250.35 258.66
  Q 247.91 259.89 245.44 262.76
  Q 242.37 266.32 239.04 269.75
  A 1.32 1.30 67.9 0 0 238.67 270.64
  Q 238.58 274.29 235.00 274.65"
/>
<path stroke="#e2e9f1" vector-effect="non-scaling-stroke" d="
  M 274.39 210.27
  Q 267.72 212.86 263.40 217.63
  A 1.40 1.35 67.7 0 0 263.04 218.54
  C 262.86 225.80 270.51 225.44 276.10 224.84
  A 1.24 1.19 -72.1 0 0 276.90 224.41
  C 279.60 221.16 281.53 218.44 286.04 217.61
  Q 289.94 216.90 293.13 215.74
  A 0.78 0.78 0.0 0 0 293.14 214.27
  C 288.01 212.36 282.97 212.44 277.76 210.85"
/>
<path stroke="#e2e9f1" vector-effect="non-scaling-stroke" d="
  M 288.22 197.18
  Q 289.37 201.00 294.25 202.55
  Q 294.84 202.74 295.17 203.26
  L 296.32 205.02
  A 0.50 0.49 55.1 0 0 297.04 205.15
  C 299.10 203.57 301.92 205.58 303.97 206.41
  Q 304.48 206.61 304.74 206.13
  C 306.65 202.53 308.13 198.75 312.36 197.37
  Q 315.35 196.40 312.52 195.02
  C 307.97 192.79 301.97 191.90 297.26 189.24
  Q 296.79 188.98 296.30 189.20
  L 291.20 191.44"
/>
<path stroke="#d4dce8" vector-effect="non-scaling-stroke" d="
  M 301.12 264.84
  Q 300.72 265.01 298.82 263.64"
/>
<path stroke="#e2e7f0" vector-effect="non-scaling-stroke" d="
  M 298.82 263.64
  Q 294.31 259.89 288.98 257.05"
/>
<path stroke="#7f7f80" vector-effect="non-scaling-stroke" d="
  M 101.89 144.93
  Q 98.61 141.77 93.92 142.01
  A 2.15 2.15 0.0 0 0 91.92 144.57
  C 94.19 156.42 116.28 171.93 125.95 178.39
  C 135.08 184.48 145.85 186.51 156.64 186.47
  C 160.73 186.46 165.44 183.20 168.96 181.36
  A 0.87 0.86 32.6 0 0 168.60 179.73
  Q 161.88 179.36 156.19 179.27
  C 151.81 179.20 145.18 174.02 141.61 171.48
  C 139.16 169.73 138.64 167.41 141.33 165.57
  Q 150.33 159.42 160.10 155.89
  A 0.86 0.85 34.2 0 0 159.78 154.23
  C 150.18 154.51 140.54 155.69 131.05 155.09
  C 128.75 154.95 125.25 155.84 122.46 154.04
  Q 112.10 147.36 103.18 143.19
  A 0.49 0.49 0.0 0 0 102.49 143.73
  L 102.64 144.52
  A 0.45 0.45 0.0 0 1 101.89 144.93"
/>
</g>
<path fill="#000000" fill-opacity="0.004" d="
  M 0.00 0.00
  L 420.00 0.00
  L 420.00 402.00
  L 0.00 402.00
  L 0.00 0.00
  Z
  M 69.36 88.15
  Q 68.82 88.56 68.06 89.56
  C 52.32 110.48 41.58 132.79 35.39 157.84
  C 25.07 199.64 30.43 249.11 51.28 287.97
  C 90.31 360.73 172.57 398.95 253.83 377.09
  Q 294.40 366.18 326.39 338.08
  C 331.30 333.76 335.97 328.53 340.56 323.55
  C 361.67 300.66 375.85 272.22 382.64 241.85
  C 384.29 234.48 385.96 226.18 386.23 218.73
  C 387.18 192.96 386.91 173.58 380.33 150.66
  C 360.89 82.93 306.25 33.58 236.28 22.00
  Q 231.61 21.23 227.66 21.01
  C 216.94 20.40 206.71 19.60 195.95 20.65
  C 192.14 21.03 186.73 20.72 182.10 21.92
  C 180.64 22.30 179.10 22.40 177.60 22.69
  Q 118.53 34.33 77.64 78.15
  Q 73.00 83.13 70.03 87.44
  Q 69.75 87.85 69.36 88.15
  Z"
/>
<path fill="#000000" d="
  M 70.03 87.44
  Q 73.00 83.13 77.64 78.15
  Q 118.53 34.33 177.60 22.69
  C 179.10 22.40 180.64 22.30 182.10 21.92
  C 186.73 20.72 192.14 21.03 195.95 20.65
  C 206.71 19.60 216.94 20.40 227.66 21.01
  Q 231.61 21.23 236.28 22.00
  C 306.25 33.58 360.89 82.93 380.33 150.66
  C 386.91 173.58 387.18 192.96 386.23 218.73
  C 385.96 226.18 384.29 234.48 382.64 241.85
  C 375.85 272.22 361.67 300.66 340.56 323.55
  C 335.97 328.53 331.30 333.76 326.39 338.08
  Q 294.40 366.18 253.83 377.09
  C 172.57 398.95 90.31 360.73 51.28 287.97
  C 30.43 249.11 25.07 199.64 35.39 157.84
  C 41.58 132.79 52.32 110.48 68.06 89.56
  Q 68.82 88.56 69.36 88.15
  Q 69.75 87.85 70.03 87.44
  Z
  M 74.80 318.88
  Q 86.05 332.02 99.58 343.09
  L 105.93 347.86
  Q 117.73 356.71 130.98 363.02
  L 142.97 368.44
  L 154.49 372.66
  C 221.76 394.61 290.90 373.81 339.06 323.24
  L 351.97 306.42
  Q 362.28 291.75 369.39 276.00
  Q 381.93 247.81 384.40 218.31
  C 387.74 186.26 381.86 153.77 368.39 124.72
  L 364.82 117.52
  Q 359.31 106.63 352.22 96.70
  C 283.71 -0.90 139.70 -3.49 68.39 92.70
  C 17.85 160.88 19.99 253.46 74.80 318.88
  Z"
/>
<path fill="#65b3f4" d="
  M 352.22 96.70
  C 351.23 97.54 350.56 97.94 349.22 97.47
  Q 341.21 94.62 335.73 94.65
  C 322.75 94.70 310.53 105.59 302.27 116.18
  Q 301.94 116.60 301.43 116.72
  Q 298.99 117.31 296.49 117.70
  C 293.08 118.24 283.02 129.72 281.42 132.96
  Q 279.08 137.69 278.66 143.08
  Q 278.61 143.68 278.08 143.96
  L 258.00 154.30
  Q 257.46 154.58 256.86 154.45
  C 253.10 153.64 248.94 155.25 245.40 156.50
  C 233.79 160.58 226.03 175.28 225.78 186.93
  C 225.72 189.78 227.85 193.08 224.95 195.65
  C 223.41 197.02 220.55 196.52 218.58 196.36
  Q 218.10 196.32 217.71 196.59
  C 212.98 199.83 211.34 203.97 209.45 209.95
  Q 209.03 211.28 206.21 212.81
  C 198.03 213.36 190.34 208.93 179.96 204.03
  C 178.49 203.33 177.22 201.98 175.78 201.25
  Q 165.06 195.78 155.33 188.69
  C 160.75 189.17 167.25 184.38 172.22 182.18
  Q 172.59 182.01 172.44 181.63
  C 170.47 176.40 161.20 177.69 156.57 177.28
  C 153.06 176.96 144.30 171.52 142.20 168.69
  A 0.61 0.60 50.8 0 1 142.28 167.87
  C 147.93 162.83 156.72 159.28 163.64 156.29
  Q 164.31 156.01 163.95 155.38
  Q 161.65 151.41 157.26 152.01
  Q 148.56 153.19 127.50 152.91
  C 122.66 152.84 113.99 146.34 109.39 143.88
  C 104.82 141.44 87.37 134.50 90.07 146.28
  C 92.75 158.01 116.49 175.12 126.06 181.75
  C 149.90 198.28 173.13 212.77 202.09 222.67
  Q 201.29 223.60 200.51 223.88
  Q 192.42 226.77 186.96 233.30
  C 185.17 235.43 184.13 238.17 182.67 240.72
  Q 182.40 241.18 181.87 241.24
  L 181.01 241.34
  C 170.71 240.20 162.73 236.59 153.07 243.13
  Q 152.64 243.42 152.45 242.94
  C 150.39 237.89 143.99 238.45 139.57 239.27
  Q 137.42 239.67 134.15 241.48
  C 130.41 243.55 126.26 244.33 122.83 246.57
  Q 118.81 249.17 114.92 252.01
  A 1.35 1.33 29.4 0 1 114.00 252.26
  C 102.08 250.98 90.28 256.59 81.48 264.74
  C 72.51 272.14 68.42 284.04 73.96 294.80
  Q 73.95 295.62 74.33 295.50
  C 73.84 297.63 72.95 299.37 73.00 301.56
  Q 73.12 306.06 72.74 310.56
  Q 72.69 311.07 72.97 311.50
  L 76.08 316.41
  L 74.80 318.88
  C 19.99 253.46 17.85 160.88 68.39 92.70
  C 139.70 -3.49 283.71 -0.90 352.22 96.70
  Z"
/>
<path fill="#f1f6fb" d="
  M 352.22 96.70
  Q 359.31 106.63 364.82 117.52
  C 364.59 119.97 360.83 118.34 359.66 117.47
  Q 359.24 117.15 358.72 117.22
  Q 355.58 117.63 352.88 115.99
  Q 352.42 115.71 351.88 115.73
  C 341.87 116.12 327.40 127.80 322.66 136.68
  C 321.31 139.19 324.67 147.79 325.70 150.52
  A 0.72 0.71 71.3 0 1 325.24 151.46
  L 320.58 152.91
  Q 320.19 153.03 319.90 153.32
  Q 319.18 154.04 317.95 153.53
  C 314.25 152.00 311.15 151.14 309.93 147.35
  A 1.04 1.04 0.0 0 0 307.98 147.28
  L 306.20 151.77
  Q 306.00 152.26 306.00 152.78
  Q 305.99 153.65 305.50 154.38
  A 0.89 0.88 23.4 0 1 304.56 154.75
  L 301.70 154.10
  A 1.08 1.07 -11.1 0 1 301.05 153.67
  C 299.17 151.04 297.32 148.70 293.93 148.06
  C 285.51 146.48 274.73 149.14 270.30 157.17
  Q 270.07 157.58 270.10 158.05
  Q 270.34 161.26 268.38 163.14
  Q 260.29 170.88 253.99 181.76
  Q 253.10 183.30 254.55 184.34
  L 258.34 187.06
  A 0.57 0.56 55.4 0 1 258.16 188.07
  L 255.50 188.77
  Q 254.59 189.00 255.48 189.31
  Q 256.82 189.78 257.21 191.13
  A 0.72 0.71 68.1 0 1 256.86 191.96
  Q 253.21 193.85 250.87 197.43
  A 2.30 2.29 -46.8 0 0 250.95 200.07
  Q 252.66 202.35 253.29 205.50
  Q 248.40 211.78 244.35 218.60
  A 1.95 1.88 -29.3 0 0 244.08 219.50
  C 243.98 221.71 240.78 222.99 239.15 225.37
  A 0.97 0.96 21.3 0 1 238.21 225.78
  Q 235.65 225.41 233.76 227.05
  A 1.22 1.20 -58.7 0 1 232.69 227.32
  Q 229.33 226.52 226.95 227.66
  Q 217.88 226.48 209.26 223.90
  Q 210.41 223.39 211.19 223.85
  A 0.90 0.89 81.7 0 0 212.25 222.42
  Q 209.37 219.68 211.44 215.99
  A 0.62 0.62 0.0 0 0 211.16 215.12
  L 206.21 212.81
  Q 209.03 211.28 209.45 209.95
  C 211.34 203.97 212.98 199.83 217.71 196.59
  Q 218.10 196.32 218.58 196.36
  C 220.55 196.52 223.41 197.02 224.95 195.65
  C 227.85 193.08 225.72 189.78 225.78 186.93
  C 226.03 175.28 233.79 160.58 245.40 156.50
  C 248.94 155.25 253.10 153.64 256.86 154.45
  Q 257.46 154.58 258.00 154.30
  L 278.08 143.96
  Q 278.61 143.68 278.66 143.08
  Q 279.08 137.69 281.42 132.96
  C 283.02 129.72 293.08 118.24 296.49 117.70
  Q 298.99 117.31 301.43 116.72
  Q 301.94 116.60 302.27 116.18
  C 310.53 105.59 322.75 94.70 335.73 94.65
  Q 341.21 94.62 349.22 97.47
  C 350.56 97.94 351.23 97.54 352.22 96.70
  Z"
/>
<path fill="#e3e7f0" d="
  M 364.82 117.52
  L 368.39 124.72
  Q 367.72 126.19 366.15 126.58
  Q 365.65 126.70 365.27 126.35
  C 362.55 123.82 359.42 123.43 356.13 125.53
  C 350.28 129.26 341.61 137.29 342.51 145.12
  A 2.25 2.25 0.0 0 1 341.30 147.38
  Q 336.32 149.93 334.01 155.00
  Q 333.73 155.61 333.06 155.53
  Q 331.37 155.32 330.65 153.66
  A 0.49 0.49 0.0 0 0 329.81 153.56
  C 327.24 157.01 326.10 154.94 323.33 155.42
  C 322.17 155.63 319.35 156.74 318.39 155.58
  Q 318.10 155.22 317.64 155.24
  C 309.77 155.58 305.99 159.40 301.79 165.12
  A 1.79 1.73 -82.4 0 1 301.02 165.73
  C 291.60 169.49 284.21 174.83 281.24 184.83
  Q 281.09 185.33 280.58 185.43
  C 274.95 186.62 272.56 191.76 270.92 196.98
  Q 269.80 200.51 272.17 203.03
  C 272.71 203.61 272.69 204.45 271.93 204.87
  A 0.75 0.74 56.3 0 1 271.00 204.68
  Q 269.11 202.38 266.40 201.08
  Q 265.86 200.82 265.81 200.22
  Q 265.74 199.47 265.22 198.89
  Q 264.94 198.59 264.55 198.49
  C 258.94 197.08 256.19 202.86 253.29 205.50
  Q 252.66 202.35 250.95 200.07
  A 2.30 2.29 -46.8 0 1 250.87 197.43
  Q 253.21 193.85 256.86 191.96
  A 0.72 0.71 68.1 0 0 257.21 191.13
  Q 256.82 189.78 255.48 189.31
  Q 254.59 189.00 255.50 188.77
  L 258.16 188.07
  A 0.57 0.56 55.4 0 0 258.34 187.06
  L 254.55 184.34
  Q 253.10 183.30 253.99 181.76
  Q 260.29 170.88 268.38 163.14
  Q 270.34 161.26 270.10 158.05
  Q 270.07 157.58 270.30 157.17
  C 274.73 149.14 285.51 146.48 293.93 148.06
  C 297.32 148.70 299.17 151.04 301.05 153.67
  A 1.08 1.07 -11.1 0 0 301.70 154.10
  L 304.56 154.75
  A 0.89 0.88 23.4 0 0 305.50 154.38
  Q 305.99 153.65 306.00 152.78
  Q 306.00 152.26 306.20 151.77
  L 307.98 147.28
  A 1.04 1.04 0.0 0 1 309.93 147.35
  C 311.15 151.14 314.25 152.00 317.95 153.53
  Q 319.18 154.04 319.90 153.32
  Q 320.19 153.03 320.58 152.91
  L 325.24 151.46
  A 0.72 0.71 71.3 0 0 325.70 150.52
  C 324.67 147.79 321.31 139.19 322.66 136.68
  C 327.40 127.80 341.87 116.12 351.88 115.73
  Q 352.42 115.71 352.88 115.99
  Q 355.58 117.63 358.72 117.22
  Q 359.24 117.15 359.66 117.47
  C 360.83 118.34 364.59 119.97 364.82 117.52
  Z"
/>
<path fill="#c5d0e0" d="
  M 368.39 124.72
  C 381.86 153.77 387.74 186.26 384.40 218.31
  Q 383.86 219.00 383.65 217.93
  Q 383.55 217.39 383.12 217.03
  L 371.59 207.50
  Q 371.09 207.08 370.65 207.58
  C 367.95 210.64 364.96 212.52 368.06 216.95
  A 1.41 1.39 -56.9 0 1 368.28 218.03
  L 368.13 218.79
  A 0.66 0.66 0.0 0 1 367.07 219.18
  Q 356.52 210.81 343.65 208.71
  C 337.47 207.70 333.88 206.17 329.00 203.20
  A 0.78 0.77 -35.7 0 1 329.24 201.78
  L 333.81 200.72
  A 1.29 1.29 0.0 0 0 334.34 198.47
  L 332.57 197.01
  A 1.13 1.13 0.0 0 1 332.52 195.31
  C 336.16 191.91 342.30 189.27 346.11 194.37
  Q 346.40 194.77 346.88 194.90
  C 349.18 195.55 351.42 198.50 353.34 197.73
  C 362.50 194.04 369.93 198.14 378.34 201.17
  A 0.83 0.83 0.0 0 0 379.26 199.85
  Q 370.30 189.10 357.52 184.36
  C 354.01 183.05 349.95 183.15 346.11 182.73
  C 342.91 182.38 341.90 181.39 339.41 179.57
  C 333.60 175.30 322.93 180.15 317.82 184.07
  Q 316.52 185.06 315.17 185.27
  Q 314.64 185.35 314.28 184.96
  C 306.50 176.59 295.88 183.81 291.20 191.44
  Q 289.33 193.83 288.22 197.18
  L 284.65 210.29
  Q 284.47 210.97 283.79 210.78
  L 280.69 209.89
  A 1.33 1.30 40.4 0 0 279.80 209.95
  L 277.76 210.85
  L 274.39 210.27
  Q 262.46 209.82 259.79 221.50
  Q 259.68 222.02 260.04 222.40
  L 261.18 223.59
  A 0.87 0.86 30.9 0 1 261.39 224.40
  Q 260.71 226.94 259.45 229.26
  Q 259.20 229.72 259.32 230.23
  Q 259.59 231.38 259.18 232.55
  Q 258.99 233.08 258.47 233.25
  C 250.55 235.76 255.09 242.54 258.25 246.61
  C 260.55 249.58 261.20 251.98 265.56 252.56
  A 0.66 0.64 -11.2 0 1 266.04 252.87
  L 266.20 253.14
  A 0.42 0.41 73.7 0 1 265.86 253.77
  C 256.12 254.06 248.39 254.70 242.72 263.20
  Q 238.75 269.16 235.00 274.65
  L 232.02 277.26
  Q 231.58 277.65 230.99 277.60
  L 224.20 277.09
  Q 223.70 277.05 223.28 277.31
  Q 220.09 279.29 219.20 283.09
  Q 219.07 283.62 218.53 283.49
  L 216.66 283.04
  A 0.89 0.87 27.6 0 0 215.79 283.30
  Q 213.29 286.05 212.98 289.75
  Q 212.95 290.14 212.56 290.17
  L 209.95 290.41
  A 0.80 0.79 86.9 0 0 209.24 291.22
  Q 209.26 292.55 208.39 293.23
  A 2.38 2.24 15.8 0 1 207.60 293.64
  L 204.57 294.56
  Q 203.87 294.77 204.08 295.46
  L 205.86 301.45
  A 1.20 1.20 0.0 0 1 204.02 302.77
  L 201.73 301.15
  A 0.52 0.52 0.0 0 0 200.93 301.44
  Q 198.94 308.65 193.08 313.01
  Q 192.27 313.60 191.80 315.48
  Q 191.67 316.00 191.93 316.47
  Q 193.65 319.67 196.38 322.11
  A 1.86 1.84 -76.5 0 1 196.95 323.05
  Q 198.22 328.15 202.51 331.00
  Q 202.93 331.28 202.98 331.78
  Q 203.20 333.85 202.39 335.63
  C 200.72 339.28 194.71 339.66 196.65 345.13
  C 196.58 348.02 193.11 347.02 191.16 346.76
  C 188.15 346.36 184.82 346.77 181.70 345.95
  Q 178.45 345.10 175.12 344.82
  A 1.35 1.35 0.0 0 1 174.38 342.44
  L 176.24 340.89
  Q 178.62 336.04 175.37 334.23
  A 0.72 0.72 0.0 0 1 175.24 333.07
  Q 178.45 330.20 182.03 327.83
  C 183.21 327.05 185.20 326.75 186.15 326.01
  A 1.75 1.75 0.0 0 0 186.31 323.39
  L 180.00 317.14
  Q 179.58 316.73 179.07 317.02
  C 173.83 320.00 166.56 325.68 164.42 331.56
  Q 155.38 329.76 152.42 337.80
  Q 152.26 338.21 151.87 338.42
  Q 150.76 339.00 151.00 340.33
  A 0.26 0.25 73.1 0 1 150.86 340.60
  Q 143.43 344.29 140.41 350.18
  C 138.84 353.25 137.52 356.29 140.35 358.88
  Q 140.75 359.24 141.27 359.11
  Q 146.11 357.88 146.96 352.96
  A 0.47 0.47 0.0 0 1 147.84 352.82
  C 148.02 353.16 143.40 366.54 142.97 368.44
  L 130.98 363.02
  L 131.42 360.60
  Q 131.50 360.19 131.15 359.96
  C 128.35 358.05 127.69 353.23 127.70 350.24
  Q 127.70 349.71 127.98 349.24
  Q 128.92 347.65 129.27 345.81
  A 0.53 0.53 0.0 0 0 128.57 345.21
  Q 121.32 347.67 113.64 347.64
  Q 113.19 347.64 112.80 347.42
  Q 109.31 345.48 105.93 347.86
  L 99.58 343.09
  Q 101.01 341.42 103.03 341.00
  Q 103.54 340.89 103.94 341.22
  C 109.51 345.73 117.31 348.77 124.01 345.19
  C 125.84 344.21 130.63 344.57 128.09 340.70
  A 1.69 1.69 0.0 0 1 128.29 338.60
  L 129.73 337.11
  A 0.93 0.93 0.0 0 0 129.93 336.12
  C 129.42 334.85 128.26 333.93 127.77 333.07
  Q 125.14 328.47 127.50 323.51
  Q 127.74 323.01 127.30 322.68
  Q 126.83 322.32 126.14 322.55
  A 0.89 0.88 -28.0 0 1 125.17 322.26
  L 124.17 321.02
  Q 123.93 320.72 123.57 320.61
  Q 121.20 319.86 121.52 317.37
  Q 121.62 316.60 122.28 317.01
  L 125.82 319.16
  A 1.45 1.40 3.0 0 1 126.34 319.72
  Q 127.02 321.06 128.55 320.72
  Q 129.01 320.62 129.26 320.21
  Q 132.45 314.93 137.08 310.86
  Q 137.86 310.17 137.73 309.14
  C 136.63 300.82 143.00 293.26 151.59 294.61
  A 0.48 0.48 0.0 0 0 151.82 293.69
  Q 148.04 292.37 149.02 288.12
  C 151.23 278.50 161.16 279.26 163.60 271.40
  Q 172.18 266.36 183.24 267.67
  A 0.47 0.46 -9.2 0 0 183.72 267.01
  Q 182.45 264.25 179.94 262.55
  A 1.79 1.77 -30.9 0 1 180.77 259.32
  Q 181.10 259.28 181.64 259.59
  A 1.16 1.15 -39.8 0 0 182.58 259.67
  Q 185.07 258.83 187.88 259.21
  C 189.87 262.36 190.70 265.53 195.01 265.80
  Q 195.53 265.84 195.80 266.28
  Q 198.63 270.98 204.11 271.80
  Q 204.65 271.88 204.79 271.35
  Q 207.88 259.78 218.97 254.90
  C 222.60 253.30 225.70 255.20 229.10 254.95
  A 0.82 0.82 0.0 0 0 229.82 254.38
  Q 230.79 251.42 232.94 249.18
  A 1.28 1.25 -24.8 0 0 233.30 248.23
  Q 233.17 245.44 231.10 243.55
  Q 230.74 243.22 230.26 243.25
  Q 226.33 243.52 225.42 238.89
  C 226.57 235.13 228.63 231.73 226.95 227.66
  Q 229.33 226.52 232.69 227.32
  A 1.22 1.20 -58.7 0 0 233.76 227.05
  Q 235.65 225.41 238.21 225.78
  A 0.97 0.96 21.3 0 0 239.15 225.37
  C 240.78 222.99 243.98 221.71 244.08 219.50
  A 1.95 1.88 -29.3 0 1 244.35 218.60
  Q 248.40 211.78 253.29 205.50
  C 256.19 202.86 258.94 197.08 264.55 198.49
  Q 264.94 198.59 265.22 198.89
  Q 265.74 199.47 265.81 200.22
  Q 265.86 200.82 266.40 201.08
  Q 269.11 202.38 271.00 204.68
  A 0.75 0.74 56.3 0 0 271.93 204.87
  C 272.69 204.45 272.71 203.61 272.17 203.03
  Q 269.80 200.51 270.92 196.98
  C 272.56 191.76 274.95 186.62 280.58 185.43
  Q 281.09 185.33 281.24 184.83
  C 284.21 174.83 291.60 169.49 301.02 165.73
  A 1.79 1.73 -82.4 0 0 301.79 165.12
  C 305.99 159.40 309.77 155.58 317.64 155.24
  Q 318.10 155.22 318.39 155.58
  C 319.35 156.74 322.17 155.63 323.33 155.42
  C 326.10 154.94 327.24 157.01 329.81 153.56
  A 0.49 0.49 0.0 0 1 330.65 153.66
  Q 331.37 155.32 333.06 155.53
  Q 333.73 155.61 334.01 155.00
  Q 336.32 149.93 341.30 147.38
  A 2.25 2.25 0.0 0 0 342.51 145.12
  C 341.61 137.29 350.28 129.26 356.13 125.53
  C 359.42 123.43 362.55 123.82 365.27 126.35
  Q 365.65 126.70 366.15 126.58
  Q 367.72 126.19 368.39 124.72
  Z"
/>
<path fill="#000000" d="
  M 155.33 188.69
  Q 145.81 188.43 136.77 185.98
  Q 136.27 185.84 136.69 186.15
  C 149.74 195.92 160.97 202.48 175.94 209.72
  C 186.07 214.63 197.31 218.82 208.15 223.05
  Q 208.55 223.21 208.66 223.61
  Q 208.70 223.77 208.74 223.96
  L 202.09 222.67
  C 173.13 212.77 149.90 198.28 126.06 181.75
  C 116.49 175.12 92.75 158.01 90.07 146.28
  C 87.37 134.50 104.82 141.44 109.39 143.88
  C 113.99 146.34 122.66 152.84 127.50 152.91
  Q 148.56 153.19 157.26 152.01
  Q 161.65 151.41 163.95 155.38
  Q 164.31 156.01 163.64 156.29
  C 156.72 159.28 147.93 162.83 142.28 167.87
  A 0.61 0.60 50.8 0 0 142.20 168.69
  C 144.30 171.52 153.06 176.96 156.57 177.28
  C 161.20 177.69 170.47 176.40 172.44 181.63
  Q 172.59 182.01 172.22 182.18
  C 167.25 184.38 160.75 189.17 155.33 188.69
  Z
  M 101.89 144.93
  Q 98.61 141.77 93.92 142.01
  A 2.15 2.15 0.0 0 0 91.92 144.57
  C 94.19 156.42 116.28 171.93 125.95 178.39
  C 135.08 184.48 145.85 186.51 156.64 186.47
  C 160.73 186.46 165.44 183.20 168.96 181.36
  A 0.87 0.86 32.6 0 0 168.60 179.73
  Q 161.88 179.36 156.19 179.27
  C 151.81 179.20 145.18 174.02 141.61 171.48
  C 139.16 169.73 138.64 167.41 141.33 165.57
  Q 150.33 159.42 160.10 155.89
  A 0.86 0.85 34.2 0 0 159.78 154.23
  C 150.18 154.51 140.54 155.69 131.05 155.09
  C 128.75 154.95 125.25 155.84 122.46 154.04
  Q 112.10 147.36 103.18 143.19
  A 0.49 0.49 0.0 0 0 102.49 143.73
  L 102.64 144.52
  A 0.45 0.45 0.0 0 1 101.89 144.93
  Z"
/>
<path fill="#fefeff" d="
  M 102.64 144.52
  L 102.49 143.73
  A 0.49 0.49 0.0 0 1 103.18 143.19
  Q 112.10 147.36 122.46 154.04
  C 125.25 155.84 128.75 154.95 131.05 155.09
  C 140.54 155.69 150.18 154.51 159.78 154.23
  A 0.86 0.85 34.2 0 1 160.10 155.89
  Q 150.33 159.42 141.33 165.57
  C 138.64 167.41 139.16 169.73 141.61 171.48
  C 145.18 174.02 151.81 179.20 156.19 179.27
  Q 161.88 179.36 168.60 179.73
  A 0.87 0.86 32.6 0 1 168.96 181.36
  C 165.44 183.20 160.73 186.46 156.64 186.47
  C 145.85 186.51 135.08 184.48 125.95 178.39
  C 116.28 171.93 94.19 156.42 91.92 144.57
  A 2.15 2.15 0.0 0 1 93.92 142.01
  Q 98.61 141.77 101.89 144.93
  A 0.45 0.45 0.0 0 0 102.64 144.52
  Z"
/>
<path fill="#d3dce7" d="
  M 384.40 218.31
  Q 381.93 247.81 369.39 276.00
  Q 357.35 269.23 350.85 276.72
  C 348.89 278.98 340.46 291.48 341.99 295.00
  Q 345.09 302.12 351.97 306.42
  L 339.06 323.24
  C 333.18 319.04 327.52 316.17 321.32 318.11
  C 314.32 320.30 308.34 322.72 306.25 330.45
  Q 304.45 337.12 302.38 343.79
  A 1.17 1.17 0.0 0 1 300.60 344.40
  C 296.08 341.27 292.91 334.25 289.04 330.01
  Q 288.71 329.65 288.62 329.17
  Q 284.53 306.58 305.29 298.99
  A 1.35 1.35 0.0 0 0 305.35 296.48
  C 300.26 294.34 300.74 287.94 293.36 291.13
  Q 292.58 291.46 291.76 291.70
  Q 291.28 291.84 291.02 291.41
  Q 290.18 290.01 288.51 289.80
  A 1.19 1.18 -64.3 0 0 287.52 290.15
  Q 286.63 291.07 285.50 292.77
  Q 283.04 296.47 278.71 299.30
  Q 278.31 299.56 278.07 299.96
  L 272.71 309.08
  Q 272.46 309.50 272.60 309.96
  Q 273.08 311.49 274.29 312.45
  Q 274.78 312.84 274.34 313.29
  Q 273.30 314.35 271.92 314.97
  Q 271.44 315.18 271.12 315.59
  L 269.56 317.58
  A 1.46 1.45 62.8 0 0 269.25 318.56
  Q 269.35 320.17 268.47 321.53
  Q 268.22 321.91 268.27 322.37
  C 268.71 326.90 266.17 329.34 262.42 331.48
  C 260.78 332.42 257.38 332.42 257.30 335.35
  A 3.06 3.06 0.0 0 0 258.76 338.03
  Q 261.53 339.72 262.94 342.60
  A 1.91 1.91 0.0 0 0 265.79 343.29
  L 271.08 339.36
  A 1.30 1.29 -36.4 0 1 272.90 339.63
  Q 273.89 340.98 272.96 342.07
  A 0.82 0.82 0.0 0 0 273.82 343.39
  L 279.22 341.73
  A 1.59 1.59 0.0 0 1 280.86 344.32
  L 275.35 350.41
  Q 275.14 350.64 275.08 350.95
  Q 274.65 352.96 272.85 354.07
  A 0.79 0.78 45.3 0 1 272.01 354.06
  C 268.99 352.07 263.66 354.72 260.21 355.37
  A 1.26 1.26 0.0 0 1 258.74 353.90
  L 259.04 352.36
  Q 259.10 352.04 258.93 351.76
  Q 256.42 347.45 252.17 345.00
  A 1.18 1.18 0.0 0 0 251.21 344.91
  Q 247.07 346.32 244.32 343.35
  A 1.27 1.26 66.0 0 0 243.29 342.95
  Q 240.97 343.16 241.16 345.47
  A 0.95 0.95 0.0 0 1 240.77 346.31
  C 237.40 348.74 237.15 351.71 235.02 354.88
  C 231.14 360.63 233.89 364.94 232.06 370.81
  A 0.11 0.11 0.0 0 0 232.14 370.95
  Q 232.25 370.99 232.37 371.08
  A 0.10 0.09 -46.6 0 1 232.37 371.23
  Q 224.55 377.99 214.52 374.48
  Q 214.01 374.30 213.86 373.78
  Q 212.86 370.29 209.64 368.82
  Q 209.17 368.61 208.75 368.91
  L 203.42 372.80
  Q 203.05 373.07 202.71 372.78
  Q 199.00 369.67 197.29 365.11
  A 1.28 1.24 -89.2 0 0 196.62 364.40
  L 188.52 360.79
  Q 188.12 360.60 187.75 360.86
  Q 185.86 362.15 184.92 364.32
  A 1.12 1.12 0.0 0 1 182.79 364.03
  L 181.94 358.05
  A 0.76 0.75 -8.2 0 0 181.07 357.41
  C 179.14 357.71 177.95 358.58 177.02 360.51
  C 175.36 363.92 169.55 368.03 165.54 365.42
  A 0.97 0.96 49.8 0 0 164.62 365.34
  Q 158.89 367.92 154.49 372.66
  L 142.97 368.44
  C 143.40 366.54 148.02 353.16 147.84 352.82
  A 0.47 0.47 0.0 0 0 146.96 352.96
  Q 146.11 357.88 141.27 359.11
  Q 140.75 359.24 140.35 358.88
  C 137.52 356.29 138.84 353.25 140.41 350.18
  Q 143.43 344.29 150.86 340.60
  A 0.26 0.25 73.1 0 0 151.00 340.33
  Q 150.76 339.00 151.87 338.42
  Q 152.26 338.21 152.42 337.80
  Q 155.38 329.76 164.42 331.56
  C 163.98 335.17 161.06 337.17 161.26 341.37
  A 1.06 1.04 -74.1 0 0 161.69 342.16
  Q 162.75 342.93 163.01 344.21
  Q 163.13 344.79 163.67 345.03
  Q 165.21 345.72 165.86 347.35
  A 0.50 0.50 0.0 0 0 166.72 347.47
  Q 168.02 345.77 168.23 343.61
  Q 168.28 343.07 168.63 342.66
  Q 170.18 340.79 170.48 338.29
  Q 170.56 337.70 171.15 337.69
  Q 173.87 337.63 174.74 340.27
  A 0.71 0.70 -11.1 0 0 175.46 340.75
  Q 175.92 340.71 176.24 340.89
  L 174.38 342.44
  A 1.35 1.35 0.0 0 0 175.12 344.82
  Q 178.45 345.10 181.70 345.95
  C 184.82 346.77 188.15 346.36 191.16 346.76
  C 193.11 347.02 196.58 348.02 196.65 345.13
  Q 197.07 348.05 202.80 348.53
  A 1.06 1.06 0.0 0 1 203.43 350.36
  Q 200.02 353.53 200.94 358.42
  C 201.69 362.45 202.16 366.49 202.82 370.63
  A 0.84 0.84 0.0 0 0 204.28 371.06
  Q 206.05 369.08 208.00 366.91
  C 213.11 361.24 212.92 352.41 222.68 351.40
  C 226.97 352.92 230.28 346.98 233.60 345.34
  Q 235.75 344.28 238.09 343.64
  C 238.90 343.42 239.94 343.68 240.74 343.38
  A 0.71 0.71 0.0 0 0 241.19 342.64
  Q 240.72 338.27 243.27 334.79
  A 2.03 2.03 0.0 0 1 246.75 335.15
  Q 247.78 337.38 249.76 338.74
  A 0.79 0.79 0.0 0 0 250.87 337.66
  C 249.39 335.36 250.06 332.91 249.61 330.88
  Q 249.13 328.70 248.30 326.59
  Q 248.11 326.12 248.20 325.61
  C 248.93 321.77 250.71 314.62 254.05 312.25
  C 256.49 310.51 261.79 310.84 264.86 310.78
  C 268.64 310.70 266.92 308.39 266.92 306.37
  C 266.92 296.66 275.20 289.65 282.96 285.58
  C 285.65 284.17 288.35 284.99 291.00 283.26
  Q 294.33 281.08 297.66 278.84
  A 1.75 1.72 27.1 0 1 298.59 278.55
  C 302.09 278.52 307.00 280.07 308.71 275.80
  Q 308.91 275.31 308.59 274.88
  L 301.12 264.84
  Q 304.74 264.78 308.69 268.57
  Q 309.21 269.06 309.81 268.67
  C 312.58 266.85 307.66 263.14 306.34 261.90
  A 1.73 1.72 -43.1 0 1 306.43 259.31
  Q 307.60 258.34 309.52 259.44
  C 313.30 261.59 317.00 260.03 320.75 260.53
  Q 321.27 260.60 321.63 260.22
  Q 322.92 258.86 324.82 259.00
  A 0.78 0.77 -5.9 0 1 325.51 259.55
  C 326.57 262.96 331.05 257.36 333.17 256.55
  A 1.26 1.24 49.8 0 1 334.25 256.65
  L 338.02 258.96
  A 0.92 0.92 0.0 0 0 339.41 258.29
  C 339.88 254.43 338.97 249.84 340.23 246.45
  C 341.32 243.51 343.47 240.13 347.02 240.24
  Q 347.44 240.25 347.80 240.47
  L 350.04 241.79
  A 1.54 1.54 0.0 0 0 352.35 240.72
  L 352.91 237.33
  A 0.93 0.93 0.0 0 1 354.28 236.67
  L 361.03 240.44
  A 0.71 0.71 0.0 0 0 361.95 239.40
  Q 356.28 231.73 360.57 222.96
  A 1.48 1.48 0.0 0 0 359.60 220.88
  L 354.36 219.57
  Q 353.77 219.42 353.26 219.76
  Q 348.43 222.92 343.30 221.38
  C 340.29 220.47 337.46 217.59 333.71 216.70
  A 2.07 2.07 0.0 0 0 331.17 218.84
  Q 331.43 223.23 327.64 225.29
  Q 326.66 225.82 327.73 226.13
  L 329.68 226.70
  Q 330.20 226.85 330.06 227.37
  L 325.99 242.59
  A 1.62 1.62 0.0 0 0 327.39 244.61
  Q 328.75 244.76 328.76 246.16
  Q 328.77 246.76 328.20 246.96
  Q 326.43 247.58 324.52 247.41
  Q 310.16 246.12 301.54 234.77
  A 0.91 0.89 -22.0 0 0 300.72 234.43
  Q 294.57 235.26 289.84 239.40
  Q 289.49 239.71 289.44 240.17
  L 289.13 243.36
  A 0.95 0.95 0.0 0 1 288.00 244.20
  Q 282.78 243.11 279.28 239.19
  Q 278.73 238.57 278.54 239.37
  L 278.20 240.78
  A 1.74 1.74 0.0 0 1 275.90 242.01
  L 274.49 241.48
  A 0.76 0.76 0.0 0 0 273.70 241.66
  Q 270.93 244.48 270.84 248.51
  C 270.72 254.22 275.10 253.14 278.43 255.68
  A 1.39 1.37 62.4 0 0 279.33 255.97
  Q 284.36 255.77 288.98 257.05
  Q 283.09 262.03 276.74 255.98
  Q 276.37 255.63 275.86 255.65
  C 272.15 255.81 269.13 256.27 265.24 255.90
  Q 257.32 255.15 250.35 258.66
  Q 247.91 259.89 245.44 262.76
  Q 242.37 266.32 239.04 269.75
  A 1.32 1.30 67.9 0 0 238.67 270.64
  Q 238.58 274.29 235.00 274.65
  Q 238.75 269.16 242.72 263.20
  C 248.39 254.70 256.12 254.06 265.86 253.77
  A 0.42 0.41 73.7 0 0 266.20 253.14
  L 266.04 252.87
  A 0.66 0.64 -11.2 0 0 265.56 252.56
  C 261.20 251.98 260.55 249.58 258.25 246.61
  C 255.09 242.54 250.55 235.76 258.47 233.25
  Q 258.99 233.08 259.18 232.55
  Q 259.59 231.38 259.32 230.23
  Q 259.20 229.72 259.45 229.26
  Q 260.71 226.94 261.39 224.40
  A 0.87 0.86 30.9 0 0 261.18 223.59
  L 260.04 222.40
  Q 259.68 222.02 259.79 221.50
  Q 262.46 209.82 274.39 210.27
  Q 267.72 212.86 263.40 217.63
  A 1.40 1.35 67.7 0 0 263.04 218.54
  C 262.86 225.80 270.51 225.44 276.10 224.84
  A 1.24 1.19 -72.1 0 0 276.90 224.41
  C 279.60 221.16 281.53 218.44 286.04 217.61
  Q 289.94 216.90 293.13 215.74
  A 0.78 0.78 0.0 0 0 293.14 214.27
  C 288.01 212.36 282.97 212.44 277.76 210.85
  L 279.80 209.95
  A 1.33 1.30 40.4 0 1 280.69 209.89
  L 283.79 210.78
  Q 284.47 210.97 284.65 210.29
  L 288.22 197.18
  Q 289.37 201.00 294.25 202.55
  Q 294.84 202.74 295.17 203.26
  L 296.32 205.02
  A 0.50 0.49 55.1 0 0 297.04 205.15
  C 299.10 203.57 301.92 205.58 303.97 206.41
  Q 304.48 206.61 304.74 206.13
  C 306.65 202.53 308.13 198.75 312.36 197.37
  Q 315.35 196.40 312.52 195.02
  C 307.97 192.79 301.97 191.90 297.26 189.24
  Q 296.79 188.98 296.30 189.20
  L 291.20 191.44
  C 295.88 183.81 306.50 176.59 314.28 184.96
  Q 314.64 185.35 315.17 185.27
  Q 316.52 185.06 317.82 184.07
  C 322.93 180.15 333.60 175.30 339.41 179.57
  C 341.90 181.39 342.91 182.38 346.11 182.73
  C 349.95 183.15 354.01 183.05 357.52 184.36
  Q 370.30 189.10 379.26 199.85
  A 0.83 0.83 0.0 0 1 378.34 201.17
  C 369.93 198.14 362.50 194.04 353.34 197.73
  C 351.42 198.50 349.18 195.55 346.88 194.90
  Q 346.40 194.77 346.11 194.37
  C 342.30 189.27 336.16 191.91 332.52 195.31
  A 1.13 1.13 0.0 0 0 332.57 197.01
  L 334.34 198.47
  A 1.29 1.29 0.0 0 1 333.81 200.72
  L 329.24 201.78
  A 0.78 0.77 -35.7 0 0 329.00 203.20
  C 333.88 206.17 337.47 207.70 343.65 208.71
  Q 356.52 210.81 367.07 219.18
  A 0.66 0.66 0.0 0 0 368.13 218.79
  L 368.28 218.03
  A 1.41 1.39 -56.9 0 0 368.06 216.95
  C 364.96 212.52 367.95 210.64 370.65 207.58
  Q 371.09 207.08 371.59 207.50
  L 383.12 217.03
  Q 383.55 217.39 383.65 217.93
  Q 383.86 219.00 384.40 218.31
  Z"
/>
<path fill="#d3dce7" d="
  M 155.33 188.69
  Q 165.06 195.78 175.78 201.25
  C 177.22 201.98 178.49 203.33 179.96 204.03
  C 190.34 208.93 198.03 213.36 206.21 212.81
  L 211.16 215.12
  A 0.62 0.62 0.0 0 1 211.44 215.99
  Q 209.37 219.68 212.25 222.42
  A 0.90 0.89 81.7 0 1 211.19 223.85
  Q 210.41 223.39 209.26 223.90
  Q 208.64 223.41 208.74 223.96
  Q 208.70 223.77 208.66 223.61
  Q 208.55 223.21 208.15 223.05
  C 197.31 218.82 186.07 214.63 175.94 209.72
  C 160.97 202.48 149.74 195.92 136.69 186.15
  Q 136.27 185.84 136.77 185.98
  Q 145.81 188.43 155.33 188.69
  Z"
/>
<path fill="#f1f6fb" d="
  M 288.22 197.18
  Q 289.33 193.83 291.20 191.44
  L 296.30 189.20
  Q 296.79 188.98 297.26 189.24
  C 301.97 191.90 307.97 192.79 312.52 195.02
  Q 315.35 196.40 312.36 197.37
  C 308.13 198.75 306.65 202.53 304.74 206.13
  Q 304.48 206.61 303.97 206.41
  C 301.92 205.58 299.10 203.57 297.04 205.15
  A 0.50 0.49 55.1 0 1 296.32 205.02
  L 295.17 203.26
  Q 294.84 202.74 294.25 202.55
  Q 289.37 201.00 288.22 197.18
  Z"
/>
<path fill="#f1f6fb" d="
  M 274.39 210.27
  L 277.76 210.85
  C 282.97 212.44 288.01 212.36 293.14 214.27
  A 0.78 0.78 0.0 0 1 293.13 215.74
  Q 289.94 216.90 286.04 217.61
  C 281.53 218.44 279.60 221.16 276.90 224.41
  A 1.24 1.19 -72.1 0 1 276.10 224.84
  C 270.51 225.44 262.86 225.80 263.04 218.54
  A 1.40 1.35 67.7 0 1 263.40 217.63
  Q 267.72 212.86 274.39 210.27
  Z"
/>
<path fill="#c5d0e0" d="
  M 301.12 264.84
  Q 300.72 265.01 298.82 263.64
  Q 294.31 259.89 288.98 257.05
  Q 284.36 255.77 279.33 255.97
  A 1.39 1.37 62.4 0 1 278.43 255.68
  C 275.10 253.14 270.72 254.22 270.84 248.51
  Q 270.93 244.48 273.70 241.66
  A 0.76 0.76 0.0 0 1 274.49 241.48
  L 275.90 242.01
  A 1.74 1.74 0.0 0 0 278.20 240.78
  L 278.54 239.37
  Q 278.73 238.57 279.28 239.19
  Q 282.78 243.11 288.00 244.20
  A 0.95 0.95 0.0 0 0 289.13 243.36
  L 289.44 240.17
  Q 289.49 239.71 289.84 239.40
  Q 294.57 235.26 300.72 234.43
  A 0.91 0.89 -22.0 0 1 301.54 234.77
  Q 310.16 246.12 324.52 247.41
  Q 326.43 247.58 328.20 246.96
  Q 328.77 246.76 328.76 246.16
  Q 328.75 244.76 327.39 244.61
  A 1.62 1.62 0.0 0 1 325.99 242.59
  L 330.06 227.37
  Q 330.20 226.85 329.68 226.70
  L 327.73 226.13
  Q 326.66 225.82 327.64 225.29
  Q 331.43 223.23 331.17 218.84
  A 2.07 2.07 0.0 0 1 333.71 216.70
  C 337.46 217.59 340.29 220.47 343.30 221.38
  Q 348.43 222.92 353.26 219.76
  Q 353.77 219.42 354.36 219.57
  L 359.60 220.88
  A 1.48 1.48 0.0 0 1 360.57 222.96
  Q 356.28 231.73 361.95 239.40
  A 0.71 0.71 0.0 0 1 361.03 240.44
  L 354.28 236.67
  A 0.93 0.93 0.0 0 0 352.91 237.33
  L 352.35 240.72
  A 1.54 1.54 0.0 0 1 350.04 241.79
  L 347.80 240.47
  Q 347.44 240.25 347.02 240.24
  C 343.47 240.13 341.32 243.51 340.23 246.45
  C 338.97 249.84 339.88 254.43 339.41 258.29
  A 0.92 0.92 0.0 0 1 338.02 258.96
  L 334.25 256.65
  A 1.26 1.24 49.8 0 0 333.17 256.55
  C 331.05 257.36 326.57 262.96 325.51 259.55
  A 0.78 0.77 -5.9 0 0 324.82 259.00
  Q 322.92 258.86 321.63 260.22
  Q 321.27 260.60 320.75 260.53
  C 317.00 260.03 313.30 261.59 309.52 259.44
  Q 307.60 258.34 306.43 259.31
  A 1.73 1.72 -43.1 0 0 306.34 261.90
  C 307.66 263.14 312.58 266.85 309.81 268.67
  Q 309.21 269.06 308.69 268.57
  Q 304.74 264.78 301.12 264.84
  Z"
/>
<path fill="#fefeff" d="
  M 202.09 222.67
  L 208.74 223.96
  Q 208.64 223.41 209.26 223.90
  Q 217.88 226.48 226.95 227.66
  C 228.63 231.73 226.57 235.13 225.42 238.89
  L 223.06 245.87
  Q 222.89 246.35 222.42 246.55
  C 217.21 248.71 218.53 239.07 212.98 242.00
  Q 202.75 247.37 196.15 256.12
  A 1.54 1.51 -28.7 0 0 195.84 257.15
  Q 196.03 260.36 194.03 262.70
  Q 193.66 263.14 193.14 262.89
  Q 190.19 261.46 188.66 258.69
  C 186.55 257.41 186.38 255.34 184.92 253.93
  Q 182.29 251.40 179.10 249.37
  A 1.30 1.26 -33.2 0 0 178.18 249.19
  Q 172.72 250.12 167.94 252.75
  C 164.92 254.41 162.62 257.38 160.22 259.97
  A 1.99 1.99 0.0 0 1 157.30 259.97
  Q 155.63 258.17 153.33 256.20
  C 151.91 254.98 152.41 253.02 151.31 251.63
  Q 148.50 248.10 143.70 250.77
  Q 136.07 255.02 130.34 260.16
  C 122.59 267.13 116.92 271.69 109.77 277.13
  Q 109.37 277.43 108.89 277.26
  L 107.19 276.66
  A 0.74 0.73 -65.9 0 0 106.31 277.00
  Q 105.60 278.28 104.87 279.50
  C 102.63 283.26 102.68 290.76 103.11 294.64
  A 1.82 1.82 0.0 0 1 100.80 296.59
  C 96.29 295.31 95.26 297.96 91.99 299.18
  Q 89.99 299.93 87.92 300.47
  Q 87.43 300.60 87.21 301.05
  C 86.26 302.97 85.58 310.62 81.53 307.36
  A 1.80 1.78 19.4 0 1 80.85 305.96
  Q 80.85 303.03 78.87 300.86
  Q 78.60 300.57 78.21 300.46
  L 75.39 299.72
  A 0.82 0.79 -87.5 0 1 74.80 299.05
  L 74.33 295.50
  Q 73.95 295.62 73.96 294.80
  C 75.75 288.94 72.24 282.29 75.18 276.84
  C 77.48 272.56 80.34 269.94 82.40 266.84
  A 0.47 0.47 0.0 0 0 82.20 266.15
  Q 81.28 265.75 81.48 264.74
  C 90.28 256.59 102.08 250.98 114.00 252.26
  A 1.35 1.33 29.4 0 0 114.92 252.01
  Q 118.81 249.17 122.83 246.57
  C 126.26 244.33 130.41 243.55 134.15 241.48
  Q 137.42 239.67 139.57 239.27
  C 143.99 238.45 150.39 237.89 152.45 242.94
  Q 152.64 243.42 153.07 243.13
  C 162.73 236.59 170.71 240.20 181.01 241.34
  L 181.71 242.58
  A 0.68 0.67 62.6 0 0 182.58 242.86
  Q 183.69 242.33 184.78 241.56
  Q 185.14 241.30 185.27 240.88
  Q 187.21 234.61 192.34 230.50
  C 195.43 228.03 198.41 228.46 200.51 223.88
  Q 201.29 223.60 202.09 222.67
  Z"
/>
<path fill="#d3dce7" d="
  M 200.51 223.88
  C 198.41 228.46 195.43 228.03 192.34 230.50
  Q 187.21 234.61 185.27 240.88
  Q 185.14 241.30 184.78 241.56
  Q 183.69 242.33 182.58 242.86
  A 0.68 0.67 62.6 0 1 181.71 242.58
  L 181.01 241.34
  L 181.87 241.24
  Q 182.40 241.18 182.67 240.72
  C 184.13 238.17 185.17 235.43 186.96 233.30
  Q 192.42 226.77 200.51 223.88
  Z"
/>
<path fill="#e3e7f0" d="
  M 225.42 238.89
  Q 226.33 243.52 230.26 243.25
  Q 230.74 243.22 231.10 243.55
  Q 233.17 245.44 233.30 248.23
  A 1.28 1.25 -24.8 0 1 232.94 249.18
  Q 230.79 251.42 229.82 254.38
  A 0.82 0.82 0.0 0 1 229.10 254.95
  C 225.70 255.20 222.60 253.30 218.97 254.90
  Q 207.88 259.78 204.79 271.35
  Q 204.65 271.88 204.11 271.80
  Q 198.63 270.98 195.80 266.28
  Q 195.53 265.84 195.01 265.80
  C 190.70 265.53 189.87 262.36 187.88 259.21
  Q 188.14 258.88 188.66 258.69
  Q 190.19 261.46 193.14 262.89
  Q 193.66 263.14 194.03 262.70
  Q 196.03 260.36 195.84 257.15
  A 1.54 1.51 -28.7 0 1 196.15 256.12
  Q 202.75 247.37 212.98 242.00
  C 218.53 239.07 217.21 248.71 222.42 246.55
  Q 222.89 246.35 223.06 245.87
  L 225.42 238.89
  Z"
/>
<path fill="#f1f6fb" d="
  M 188.66 258.69
  Q 188.14 258.88 187.88 259.21
  Q 185.07 258.83 182.58 259.67
  A 1.16 1.15 -39.8 0 1 181.64 259.59
  Q 181.10 259.28 180.77 259.32
  A 1.79 1.77 -30.9 0 0 179.94 262.55
  Q 182.45 264.25 183.72 267.01
  A 0.47 0.46 -9.2 0 1 183.24 267.67
  Q 172.18 266.36 163.60 271.40
  Q 158.51 270.38 155.85 272.57
  Q 152.67 275.18 149.27 277.52
  Q 148.86 277.80 148.63 278.24
  L 145.68 283.88
  A 0.84 0.83 -55.3 0 1 144.38 284.12
  L 138.44 278.82
  Q 137.96 278.38 137.73 278.99
  L 137.40 279.89
  Q 137.24 280.33 136.89 280.66
  C 131.59 285.50 126.15 290.11 122.44 296.35
  A 1.48 1.47 -33.7 0 0 122.25 297.27
  C 122.48 299.28 122.03 300.36 120.44 301.73
  Q 115.15 306.29 109.74 310.76
  Q 109.36 311.07 108.87 310.98
  Q 107.59 310.75 106.71 309.74
  A 2.01 2.00 -58.8 0 0 103.26 310.59
  C 102.32 314.41 107.05 313.50 106.88 317.48
  C 106.73 321.01 107.02 323.96 110.08 325.39
  A 0.41 0.41 0.0 0 1 110.04 326.15
  Q 103.31 328.44 96.60 327.50
  C 94.01 327.14 90.29 325.59 86.53 325.76
  Q 86.01 325.79 85.56 325.52
  Q 82.80 323.85 80.98 321.13
  Q 80.69 320.69 80.21 320.45
  Q 77.62 319.18 76.08 316.41
  L 72.97 311.50
  Q 72.69 311.07 72.74 310.56
  Q 73.12 306.06 73.00 301.56
  C 72.95 299.37 73.84 297.63 74.33 295.50
  L 74.80 299.05
  A 0.82 0.79 -87.5 0 0 75.39 299.72
  L 78.21 300.46
  Q 78.60 300.57 78.87 300.86
  Q 80.85 303.03 80.85 305.96
  A 1.80 1.78 19.4 0 0 81.53 307.36
  C 85.58 310.62 86.26 302.97 87.21 301.05
  Q 87.43 300.60 87.92 300.47
  Q 89.99 299.93 91.99 299.18
  C 95.26 297.96 96.29 295.31 100.80 296.59
  A 1.82 1.82 0.0 0 0 103.11 294.64
  C 102.68 290.76 102.63 283.26 104.87 279.50
  Q 105.60 278.28 106.31 277.00
  A 0.74 0.73 -65.9 0 1 107.19 276.66
  L 108.89 277.26
  Q 109.37 277.43 109.77 277.13
  C 116.92 271.69 122.59 267.13 130.34 260.16
  Q 136.07 255.02 143.70 250.77
  Q 148.50 248.10 151.31 251.63
  C 152.41 253.02 151.91 254.98 153.33 256.20
  Q 155.63 258.17 157.30 259.97
  A 1.99 1.99 0.0 0 0 160.22 259.97
  C 162.62 257.38 164.92 254.41 167.94 252.75
  Q 172.72 250.12 178.18 249.19
  A 1.30 1.26 -33.2 0 1 179.10 249.37
  Q 182.29 251.40 184.92 253.93
  C 186.38 255.34 186.55 257.41 188.66 258.69
  Z"
/>
<path fill="#fefeff" d="
  M 288.98 257.05
  Q 294.31 259.89 298.82 263.64
  C 298.39 266.86 288.99 275.09 286.35 277.59
  Q 286.01 277.93 285.58 277.70
  Q 271.93 270.38 264.07 282.36
  Q 262.95 284.08 261.37 285.07
  Q 254.93 289.14 249.46 294.46
  Q 248.78 295.12 247.95 295.56
  Q 247.51 295.79 247.02 295.65
  C 232.78 291.66 230.55 299.91 229.37 311.45
  C 228.85 316.62 229.97 320.76 233.55 324.32
  A 1.02 1.01 46.9 0 1 233.51 325.80
  Q 227.00 331.50 224.63 339.59
  C 223.65 342.92 224.02 346.86 223.99 350.48
  Q 223.99 350.96 223.53 351.11
  L 222.68 351.40
  C 212.92 352.41 213.11 361.24 208.00 366.91
  Q 206.05 369.08 204.28 371.06
  A 0.84 0.84 0.0 0 1 202.82 370.63
  C 202.16 366.49 201.69 362.45 200.94 358.42
  Q 200.02 353.53 203.43 350.36
  A 1.06 1.06 0.0 0 0 202.80 348.53
  Q 197.07 348.05 196.65 345.13
  C 194.71 339.66 200.72 339.28 202.39 335.63
  Q 203.20 333.85 202.98 331.78
  Q 202.93 331.28 202.51 331.00
  Q 198.22 328.15 196.95 323.05
  A 1.86 1.84 -76.5 0 0 196.38 322.11
  Q 193.65 319.67 191.93 316.47
  Q 191.67 316.00 191.80 315.48
  Q 192.27 313.60 193.08 313.01
  Q 198.94 308.65 200.93 301.44
  A 0.52 0.52 0.0 0 1 201.73 301.15
  L 204.02 302.77
  A 1.20 1.20 0.0 0 0 205.86 301.45
  L 204.08 295.46
  Q 203.87 294.77 204.57 294.56
  L 207.60 293.64
  A 2.38 2.24 15.8 0 0 208.39 293.23
  Q 209.26 292.55 209.24 291.22
  A 0.80 0.79 86.9 0 1 209.95 290.41
  L 212.56 290.17
  Q 212.95 290.14 212.98 289.75
  Q 213.29 286.05 215.79 283.30
  A 0.89 0.87 27.6 0 1 216.66 283.04
  L 218.53 283.49
  Q 219.07 283.62 219.20 283.09
  Q 220.09 279.29 223.28 277.31
  Q 223.70 277.05 224.20 277.09
  L 230.99 277.60
  Q 231.58 277.65 232.02 277.26
  L 235.00 274.65
  Q 238.58 274.29 238.67 270.64
  A 1.32 1.30 67.9 0 1 239.04 269.75
  Q 242.37 266.32 245.44 262.76
  Q 247.91 259.89 250.35 258.66
  Q 257.32 255.15 265.24 255.90
  C 269.13 256.27 272.15 255.81 275.86 255.65
  Q 276.37 255.63 276.74 255.98
  Q 283.09 262.03 288.98 257.05
  Z"
/>
<path fill="#e3e7f0" d="
  M 298.82 263.64
  Q 300.72 265.01 301.12 264.84
  L 308.59 274.88
  Q 308.91 275.31 308.71 275.80
  C 307.00 280.07 302.09 278.52 298.59 278.55
  A 1.75 1.72 27.1 0 0 297.66 278.84
  Q 294.33 281.08 291.00 283.26
  C 288.35 284.99 285.65 284.17 282.96 285.58
  C 275.20 289.65 266.92 296.66 266.92 306.37
  C 266.92 308.39 268.64 310.70 264.86 310.78
  C 261.79 310.84 256.49 310.51 254.05 312.25
  C 250.71 314.62 248.93 321.77 248.20 325.61
  Q 248.11 326.12 248.30 326.59
  Q 249.13 328.70 249.61 330.88
  C 250.06 332.91 249.39 335.36 250.87 337.66
  A 0.79 0.79 0.0 0 1 249.76 338.74
  Q 247.78 337.38 246.75 335.15
  A 2.03 2.03 0.0 0 0 243.27 334.79
  Q 240.72 338.27 241.19 342.64
  A 0.71 0.71 0.0 0 1 240.74 343.38
  C 239.94 343.68 238.90 343.42 238.09 343.64
  Q 235.75 344.28 233.60 345.34
  C 230.28 346.98 226.97 352.92 222.68 351.40
  L 223.53 351.11
  Q 223.99 350.96 223.99 350.48
  C 224.02 346.86 223.65 342.92 224.63 339.59
  Q 227.00 331.50 233.51 325.80
  A 1.02 1.01 46.9 0 0 233.55 324.32
  C 229.97 320.76 228.85 316.62 229.37 311.45
  C 230.55 299.91 232.78 291.66 247.02 295.65
  Q 247.51 295.79 247.95 295.56
  Q 248.78 295.12 249.46 294.46
  Q 254.93 289.14 261.37 285.07
  Q 262.95 284.08 264.07 282.36
  Q 271.93 270.38 285.58 277.70
  Q 286.01 277.93 286.35 277.59
  C 288.99 275.09 298.39 266.86 298.82 263.64
  Z"
/>
<path fill="#f1f6fb" d="
  M 81.48 264.74
  Q 81.28 265.75 82.20 266.15
  A 0.47 0.47 0.0 0 1 82.40 266.84
  C 80.34 269.94 77.48 272.56 75.18 276.84
  C 72.24 282.29 75.75 288.94 73.96 294.80
  C 68.42 284.04 72.51 272.14 81.48 264.74
  Z"
/>
<path fill="#e3e7f0" d="
  M 163.60 271.40
  C 161.16 279.26 151.23 278.50 149.02 288.12
  Q 148.04 292.37 151.82 293.69
  A 0.48 0.48 0.0 0 1 151.59 294.61
  C 143.00 293.26 136.63 300.82 137.73 309.14
  Q 137.86 310.17 137.08 310.86
  Q 132.45 314.93 129.26 320.21
  Q 129.01 320.62 128.55 320.72
  Q 127.02 321.06 126.34 319.72
  A 1.45 1.40 3.0 0 0 125.82 319.16
  L 122.28 317.01
  Q 121.62 316.60 121.52 317.37
  Q 121.20 319.86 123.57 320.61
  Q 123.93 320.72 124.17 321.02
  L 125.17 322.26
  A 0.89 0.88 -28.0 0 0 126.14 322.55
  Q 126.83 322.32 127.30 322.68
  Q 127.74 323.01 127.50 323.51
  Q 125.14 328.47 127.77 333.07
  C 128.26 333.93 129.42 334.85 129.93 336.12
  A 0.93 0.93 0.0 0 1 129.73 337.11
  L 128.29 338.60
  A 1.69 1.69 0.0 0 0 128.09 340.70
  C 130.63 344.57 125.84 344.21 124.01 345.19
  C 117.31 348.77 109.51 345.73 103.94 341.22
  Q 103.54 340.89 103.03 341.00
  Q 101.01 341.42 99.58 343.09
  Q 86.05 332.02 74.80 318.88
  L 76.08 316.41
  Q 77.62 319.18 80.21 320.45
  Q 80.69 320.69 80.98 321.13
  Q 82.80 323.85 85.56 325.52
  Q 86.01 325.79 86.53 325.76
  C 90.29 325.59 94.01 327.14 96.60 327.50
  Q 103.31 328.44 110.04 326.15
  A 0.41 0.41 0.0 0 0 110.08 325.39
  C 107.02 323.96 106.73 321.01 106.88 317.48
  C 107.05 313.50 102.32 314.41 103.26 310.59
  A 2.01 2.00 -58.8 0 1 106.71 309.74
  Q 107.59 310.75 108.87 310.98
  Q 109.36 311.07 109.74 310.76
  Q 115.15 306.29 120.44 301.73
  C 122.03 300.36 122.48 299.28 122.25 297.27
  A 1.48 1.47 -33.7 0 1 122.44 296.35
  C 126.15 290.11 131.59 285.50 136.89 280.66
  Q 137.24 280.33 137.40 279.89
  L 137.73 278.99
  Q 137.96 278.38 138.44 278.82
  L 144.38 284.12
  A 0.84 0.83 -55.3 0 0 145.68 283.88
  L 148.63 278.24
  Q 148.86 277.80 149.27 277.52
  Q 152.67 275.18 155.85 272.57
  Q 158.51 270.38 163.60 271.40
  Z"
/>
<path fill="#c5d0e0" d="
  M 369.39 276.00
  Q 362.28 291.75 351.97 306.42
  Q 345.09 302.12 341.99 295.00
  C 340.46 291.48 348.89 278.98 350.85 276.72
  Q 357.35 269.23 369.39 276.00
  Z"
/>
<path fill="#c5d0e0" d="
  M 339.06 323.24
  C 290.90 373.81 221.76 394.61 154.49 372.66
  Q 158.89 367.92 164.62 365.34
  A 0.97 0.96 49.8 0 1 165.54 365.42
  C 169.55 368.03 175.36 363.92 177.02 360.51
  C 177.95 358.58 179.14 357.71 181.07 357.41
  A 0.76 0.75 -8.2 0 1 181.94 358.05
  L 182.79 364.03
  A 1.12 1.12 0.0 0 0 184.92 364.32
  Q 185.86 362.15 187.75 360.86
  Q 188.12 360.60 188.52 360.79
  L 196.62 364.40
  A 1.28 1.24 -89.2 0 1 197.29 365.11
  Q 199.00 369.67 202.71 372.78
  Q 203.05 373.07 203.42 372.80
  L 208.75 368.91
  Q 209.17 368.61 209.64 368.82
  Q 212.86 370.29 213.86 373.78
  Q 214.01 374.30 214.52 374.48
  Q 224.55 377.99 232.37 371.23
  A 0.10 0.09 -46.6 0 0 232.37 371.08
  Q 232.25 370.99 232.14 370.95
  A 0.11 0.11 0.0 0 1 232.06 370.81
  C 233.89 364.94 231.14 360.63 235.02 354.88
  C 237.15 351.71 237.40 348.74 240.77 346.31
  A 0.95 0.95 0.0 0 0 241.16 345.47
  Q 240.97 343.16 243.29 342.95
  A 1.27 1.26 66.0 0 1 244.32 343.35
  Q 247.07 346.32 251.21 344.91
  A 1.18 1.18 0.0 0 1 252.17 345.00
  Q 256.42 347.45 258.93 351.76
  Q 259.10 352.04 259.04 352.36
  L 258.74 353.90
  A 1.26 1.26 0.0 0 0 260.21 355.37
  C 263.66 354.72 268.99 352.07 272.01 354.06
  A 0.79 0.78 45.3 0 0 272.85 354.07
  Q 274.65 352.96 275.08 350.95
  Q 275.14 350.64 275.35 350.41
  L 280.86 344.32
  A 1.59 1.59 0.0 0 0 279.22 341.73
  L 273.82 343.39
  A 0.82 0.82 0.0 0 1 272.96 342.07
  Q 273.89 340.98 272.90 339.63
  A 1.30 1.29 -36.4 0 0 271.08 339.36
  L 265.79 343.29
  A 1.91 1.91 0.0 0 1 262.94 342.60
  Q 261.53 339.72 258.76 338.03
  A 3.06 3.06 0.0 0 1 257.30 335.35
  C 257.38 332.42 260.78 332.42 262.42 331.48
  C 266.17 329.34 268.71 326.90 268.27 322.37
  Q 268.22 321.91 268.47 321.53
  Q 269.35 320.17 269.25 318.56
  A 1.46 1.45 62.8 0 1 269.56 317.58
  L 271.12 315.59
  Q 271.44 315.18 271.92 314.97
  Q 273.30 314.35 274.34 313.29
  Q 274.78 312.84 274.29 312.45
  Q 273.08 311.49 272.60 309.96
  Q 272.46 309.50 272.71 309.08
  L 278.07 299.96
  Q 278.31 299.56 278.71 299.30
  Q 283.04 296.47 285.50 292.77
  Q 286.63 291.07 287.52 290.15
  A 1.19 1.18 -64.3 0 1 288.51 289.80
  Q 290.18 290.01 291.02 291.41
  Q 291.28 291.84 291.76 291.70
  Q 292.58 291.46 293.36 291.13
  C 300.74 287.94 300.26 294.34 305.35 296.48
  A 1.35 1.35 0.0 0 1 305.29 298.99
  Q 284.53 306.58 288.62 329.17
  Q 288.71 329.65 289.04 330.01
  C 292.91 334.25 296.08 341.27 300.60 344.40
  A 1.17 1.17 0.0 0 0 302.38 343.79
  Q 304.45 337.12 306.25 330.45
  C 308.34 322.72 314.32 320.30 321.32 318.11
  C 327.52 316.17 333.18 319.04 339.06 323.24
  Z"
/>
<path fill="#f1f6fb" d="
  M 176.24 340.89
  Q 175.92 340.71 175.46 340.75
  A 0.71 0.70 -11.1 0 1 174.74 340.27
  Q 173.87 337.63 171.15 337.69
  Q 170.56 337.70 170.48 338.29
  Q 170.18 340.79 168.63 342.66
  Q 168.28 343.07 168.23 343.61
  Q 168.02 345.77 166.72 347.47
  A 0.50 0.50 0.0 0 1 165.86 347.35
  Q 165.21 345.72 163.67 345.03
  Q 163.13 344.79 163.01 344.21
  Q 162.75 342.93 161.69 342.16
  A 1.06 1.04 -74.1 0 1 161.26 341.37
  C 161.06 337.17 163.98 335.17 164.42 331.56
  C 166.56 325.68 173.83 320.00 179.07 317.02
  Q 179.58 316.73 180.00 317.14
  L 186.31 323.39
  A 1.75 1.75 0.0 0 1 186.15 326.01
  C 185.20 326.75 183.21 327.05 182.03 327.83
  Q 178.45 330.20 175.24 333.07
  A 0.72 0.72 0.0 0 0 175.37 334.23
  Q 178.62 336.04 176.24 340.89
  Z"
/>
<path fill="#65b3f4" d="
  M 130.98 363.02
  Q 117.73 356.71 105.93 347.86
  Q 109.31 345.48 112.80 347.42
  Q 113.19 347.64 113.64 347.64
  Q 121.32 347.67 128.57 345.21
  A 0.53 0.53 0.0 0 1 129.27 345.81
  Q 128.92 347.65 127.98 349.24
  Q 127.70 349.71 127.70 350.24
  C 127.69 353.23 128.35 358.05 131.15 359.96
  Q 131.50 360.19 131.42 360.60
  L 130.98 363.02
  Z"
/>
</svg>
